<svg xmlns="http://www.w3.org/2000/svg" width="228" height="48" fill="none"><g clip-path="url(#a)"><path fill="#fff" d="M24.214 45.628c11.944 0 21.627-9.683 21.627-21.627 0-11.944-9.683-21.627-21.627-21.627-11.944 0-21.627 9.683-21.627 21.627 0 11.944 9.683 21.627 21.627 21.627Z"/><path fill="#000" d="M23.956 0c6.713 0 12.429 2.344 17.143 7.029 2.256 2.257 3.97 4.836 5.142 7.736C47.412 17.665 48 20.742 48 24c0 3.286-.58 6.364-1.735 9.235-1.158 2.87-2.865 5.407-5.121 7.607-2.343 2.314-5 4.086-7.972 5.315a23.891 23.891 0 0 1-9.214 1.842c-3.17 0-6.207-.606-9.107-1.822-2.9-1.213-5.5-2.97-7.8-5.27-2.3-2.3-4.05-4.893-5.25-7.779C.6 30.242 0 27.2 0 24c0-3.172.607-6.221 1.821-9.15C3.035 11.921 4.8 9.3 7.114 6.986 11.685 2.329 17.299 0 23.956 0Zm.087 4.329c-5.486 0-10.1 1.915-13.844 5.743-1.886 1.915-3.336 4.064-4.35 6.45A18.903 18.903 0 0 0 4.327 24c0 2.572.507 5.05 1.522 7.434a19.88 19.88 0 0 0 4.35 6.387c1.886 1.872 4.014 3.3 6.386 4.287a19.24 19.24 0 0 0 7.458 1.478c2.57 0 5.062-.499 7.48-1.5 2.414-1 4.59-2.442 6.534-4.328 3.743-3.657 5.613-8.242 5.613-13.758 0-2.657-.486-5.17-1.457-7.542-.97-2.372-2.385-4.485-4.24-6.344-3.86-3.857-8.502-5.786-13.93-5.786Zm-.301 15.686-3.215 1.672c-.344-.713-.765-1.214-1.264-1.5-.5-.285-.965-.428-1.394-.428-2.142 0-3.214 1.413-3.214 4.242 0 1.286.272 2.313.814 3.085.543.772 1.343 1.158 2.4 1.158 1.4 0 2.386-.686 2.959-2.057l2.956 1.5a7.05 7.05 0 0 1-2.614 2.764c-1.114.672-2.343 1.008-3.686 1.008-2.143 0-3.872-.657-5.186-1.972-1.314-1.314-1.971-3.142-1.971-5.485 0-2.286.664-4.1 1.992-5.442 1.329-1.343 3.007-2.015 5.037-2.015 2.972-.002 5.1 1.156 6.386 3.47Zm13.843 0-3.172 1.672c-.343-.713-.765-1.214-1.264-1.5-.502-.285-.98-.428-1.436-.428-2.143 0-3.215 1.413-3.215 4.242 0 1.286.272 2.313.814 3.085.543.772 1.342 1.158 2.401 1.158 1.399 0 2.385-.686 2.956-2.057l3 1.5a7.367 7.367 0 0 1-2.656 2.764 6.925 6.925 0 0 1-3.643 1.008c-2.172 0-3.907-.657-5.206-1.972-1.302-1.314-1.951-3.142-1.951-5.485 0-2.286.664-4.1 1.993-5.442 1.328-1.343 3.006-2.015 5.035-2.015 2.972-.002 5.087 1.156 6.344 3.47Z"/></g><g clip-path="url(#b)"><path fill="#fff" d="M84.103 45.437c11.712 0 21.207-9.495 21.207-21.207 0-11.713-9.495-21.208-21.207-21.208-11.713 0-21.207 9.495-21.207 21.208 0 11.712 9.494 21.207 21.207 21.207Z"/><path fill="#000" d="M83.957 0c6.741 0 12.428 2.314 17.057 6.943C105.67 11.6 108 17.286 108 24c0 6.743-2.287 12.357-6.859 16.842C96.284 45.614 90.556 48 83.957 48c-6.486 0-12.114-2.358-16.885-7.072C62.358 36.213 60 30.572 60 24c0-6.57 2.358-12.257 7.072-17.056C71.7 2.314 77.328 0 83.957 0Zm.086 4.329c-5.457 0-10.071 1.915-13.843 5.743-3.915 4-5.872 8.643-5.872 13.929 0 5.314 1.943 9.915 5.828 13.798 3.885 3.887 8.514 5.828 13.885 5.828 5.343 0 10-1.955 13.972-5.87 3.772-3.629 5.657-8.214 5.657-13.758 0-5.457-1.915-10.098-5.742-13.928-3.828-3.828-8.457-5.742-13.885-5.742Zm6.429 13.714v9.814H87.73v11.656h-7.458V27.857H77.53v-9.814c0-.43.15-.793.449-1.093.3-.3.665-.45 1.093-.45h9.858c.4 0 .757.15 1.07.45.314.3.472.665.472 1.093Zm-9.816-6.171c0-2.256 1.114-3.386 3.344-3.386 2.23 0 3.343 1.128 3.343 3.386 0 2.228-1.115 3.342-3.343 3.342-2.228 0-3.344-1.114-3.344-3.342Z"/></g><g clip-path="url(#c)"><path fill="#fff" d="M143.977 46.28c12.208 0 22.104-9.896 22.104-22.104 0-12.207-9.896-22.103-22.104-22.103-12.207 0-22.103 9.896-22.103 22.104 0 12.207 9.896 22.103 22.103 22.103Z"/><path fill="#000" d="M143.957 0c6.742 0 12.428 2.314 17.057 6.942C165.67 11.571 168 17.257 168 24c0 6.744-2.286 12.357-6.859 16.843C156.285 45.615 150.556 48 143.957 48c-6.515 0-12.143-2.371-16.885-7.114C122.358 36.171 120 30.544 120 24c0-6.572 2.358-12.257 7.072-17.057C131.7 2.315 137.328 0 143.957 0ZM125.4 17.529c-.714 1.971-1.072 4.129-1.072 6.472 0 5.314 1.943 9.915 5.828 13.8 3.914 3.858 8.543 5.786 13.885 5.786 5.401 0 10.057-1.956 13.973-5.872 1.4-1.342 2.499-2.743 3.298-4.201l-9.042-4.029c-.315 1.515-1.079 2.75-2.292 3.707-1.217.957-2.652 1.508-4.308 1.65v3.686h-2.786v-3.686c-2.657-.027-5.086-.984-7.285-2.87l3.299-3.343c1.571 1.456 3.357 2.185 5.358 2.185.828 0 1.536-.185 2.122-.558.585-.37.879-.983.879-1.842 0-.601-.215-1.086-.643-1.458l-2.314-.986-2.828-1.286-3.815-1.672L125.4 17.53Zm18.643-13.244c-5.457 0-10.071 1.929-13.843 5.786a22.999 22.999 0 0 0-2.657 3.215l9.171 4.114c.4-1.257 1.157-2.264 2.272-3.021 1.113-.757 2.414-1.178 3.9-1.264V9.428h2.786v3.686c2.201.115 4.2.858 6 2.229l-3.129 3.214c-1.344-.942-2.714-1.413-4.114-1.413-.743 0-1.407.143-1.992.428-.586.286-.879.771-.879 1.457 0 .2.071.4.214.6l3.042 1.372 2.101.943 3.857 1.714 12.298 5.485c.401-1.686.601-3.4.601-5.142 0-5.515-1.914-10.158-5.742-13.93-3.8-3.857-8.431-5.785-13.886-5.785Z"/></g><g clip-path="url(#d)"><path fill="#fff" d="M203.583 45.927c12.055 0 21.828-9.773 21.828-21.829 0-12.055-9.773-21.828-21.828-21.828-12.056 0-21.829 9.773-21.829 21.828 0 12.056 9.773 21.829 21.829 21.829Z"/><path fill="#000" d="M203.957 0c6.714 0 12.399 2.329 17.057 6.986C225.67 11.616 228 17.286 228 24c0 6.715-2.287 12.343-6.859 16.886C216.313 45.627 210.584 48 203.957 48c-6.486 0-12.115-2.357-16.885-7.072C182.358 36.215 180 30.573 180 24.001c0-6.543 2.358-12.214 7.072-17.014C191.729 2.329 197.357 0 203.957 0Zm.086 4.329c-5.457 0-10.071 1.929-13.843 5.786-3.915 3.972-5.872 8.6-5.872 13.885 0 5.344 1.943 9.943 5.828 13.8 3.886 3.887 8.514 5.828 13.885 5.828 5.343 0 10.001-1.956 13.972-5.87 3.772-3.658 5.657-8.243 5.657-13.758 0-5.485-1.915-10.114-5.742-13.885-3.8-3.859-8.429-5.786-13.885-5.786Zm-10.715 16.285c.457-2.943 1.642-5.222 3.557-6.836 1.914-1.614 4.242-2.42 6.985-2.42 3.77 0 6.772 1.214 9 3.641 2.228 2.429 3.343 5.543 3.343 9.343 0 3.686-1.157 6.75-3.47 9.192-2.316 2.442-5.315 3.665-9.002 3.665-2.714 0-5.057-.814-7.028-2.443-1.972-1.63-3.157-3.943-3.557-6.943h6.044c.143 2.915 1.9 4.372 5.272 4.372 1.684 0 3.042-.73 4.071-2.186s1.544-3.4 1.544-5.828c0-2.543-.472-4.478-1.414-5.807-.943-1.329-2.299-1.993-4.072-1.993-3.201 0-5.001 1.414-5.4 4.242h1.757l-4.757 4.757-4.757-4.757h1.884Z"/></g><defs><clipPath id="a"><path fill="#fff" d="M0 0h48v48H0z"/></clipPath><clipPath id="b"><path fill="#fff" d="M60 0h48v48H60z"/></clipPath><clipPath id="c"><path fill="#fff" d="M120 0h48v48h-48z"/></clipPath><clipPath id="d"><path fill="#fff" d="M180 0h48v48h-48z"/></clipPath></defs></svg>