<svg xmlns="http://www.w3.org/2000/svg" preserveAspectRatio="xMinYMax" width="189.082" height="189.082" xmlns:xlink="http://www.w3.org/1999/xlink" viewBox="0 0 189.082 189.082"><defs><clipPath id="a"><rect width="189.082" height="189.082" style="fill:none"/></clipPath></defs><title>Artboard 3</title><g style="isolation:isolate"><g style="clip-path:url(#a)"><path d="M-27.837,139.926c1.506,31.322,3.792,58.7,7.151,84.922H89.568q10.816-13.415,21.246-27.137c2.891-3.807,6.341-7.451,8.855-11.438,2.972-4.712,6.586,3.345,9.421-1.467,11.343-19.255,24.281-33.1,31.923-54.263,8.3-22.986,8.528-66.351,3.17-90.181-4.167-18.534-11.753-44.254-32.343-50.514-8.575-2.607-14.088.373-22.087,1.718-7.185,1.208-10.3-4.732-16.781-7.5C80.31-21.332,57.23-26.9,43.583-24.7,28.174-22.221,11.522-18.432-1.136-8.535-14.061,1.571-21.8,20.058-26.88,35.1c-5.391,15.958-5.009,37.3-4.265,54.013C-30.486,103.928-28.54,125.315-27.837,139.926Z" style="fill:#fff200"/><path d="M-30.337,139.926c1.383,28.386,3.566,56.724,7.151,84.922a2.565,2.565,0,0,0,2.5,2.5H82.3c2.35,0,6.312.783,8.529-.341,2.77-1.4,5.734-6.914,7.675-9.368q4.157-5.257,8.255-10.56c2.689-3.478,5.308-7.014,8.072-10.433,1.147-1.418,2.33-2.807,3.461-4.238.7-.891,2.853-4.8,4.077-5.054,1.147-.234,3.273,1.648,4.8,1.526,1.894-.152,2.994-1.387,4.075-2.811,4.672-6.16,8.474-13.3,12.842-19.716,8.162-11.989,16.1-24.371,20.4-38.351,3.659-11.9,4.951-24.617,5.54-37.009,1.162-24.455-.763-49.858-9.714-72.862C156.3,7.812,150.5-2.423,141.011-8.611a29.328,29.328,0,0,0-17.439-5.026c-7.143.424-14.632,5.077-21.212.785C97.106-16.278,92.526-19,86.529-21.019a136.633,136.633,0,0,0-20.238-5.118c-13.471-2.336-25.783-1.161-39,2.12C13.712-20.648.161-14.918-9.276-4.234c-9.052,10.248-14.605,23.211-19.09,35.979-9.642,27.45-5.4,58.546-3.343,86.946.513,7.075,1.019,14.15,1.372,21.235.16,3.2,5.161,3.222,5,0-1.376-27.579-5.464-55.445-3.144-83.077,1.179-14.044,5.429-27.342,11.564-40,6.4-13.2,15.139-23.971,28.647-30.276,12.086-5.641,27.336-9.649,40.738-9.238a111.088,111.088,0,0,1,38.2,8.466c5.235,2.175,9.272,7.1,14.931,8.173,6.507,1.229,12.987-2.711,19.514-2.665C138-8.6,147.291,2.324,152.6,12.914c10.531,21.006,12.925,45.975,12.686,69.118-.131,12.774-1.046,25.716-3.911,38.193-3.019,13.15-9.312,25.007-16.654,36.229-4.03,6.16-8.3,12.16-12.325,18.323q-1.4,2.138-2.752,4.3c-.519.832-1.866,4.137-2.713,4.466-1.2.465-3.144-1.2-4.591-1.281a5.027,5.027,0,0,0-4.116,1.83c-2.735,2.9-4.986,6.6-7.5,9.722-5.163,6.423-10.055,13.067-15.162,19.535q-1.78,2.254-3.57,4.5a26.766,26.766,0,0,0-1.793,2.244c1.593-2.527-2.37,3.172-.643,2.253-.163.087-.469-.053-.646,0-1.154.347-3,0-4.189,0H17.741c-12.031,0-24.505-.961-36.5,0-.632.051-1.288,0-1.923,0l2.5,2.5c-3.585-28.2-5.768-56.536-7.151-84.922C-25.493,136.723-30.494,136.7-30.337,139.926Z" style="fill:#231f20"/><path d="M144.582,151.368c-.088.642-.2,1.286-.288,1.926a4.327,4.327,0,0,0,.137,1.37c.117,1.074-.178,2.262-.152,3.358a19.936,19.936,0,0,0,.1,4.224,23.243,23.243,0,0,1,.376,3.532c.1.961.575,1.842.752,2.794.1.562-.017,1.1.073,1.664a15.591,15.591,0,0,0,.542,1.786c.241.828,1.9,4.845,1.241,5.367a26.633,26.633,0,0,1-4.856-2.376c-.764-.525-1.658-.756-2.473-1.21-.761-.424-1.574-.736-2.345-1.157a46.673,46.673,0,0,0-4.557-2.193,16.652,16.652,0,0,1-2.052-1.167c-.807-.475-1.781-.433-2.552-1" style="fill:#fff200"/><path d="M142.172,150.7a49.656,49.656,0,0,0,.085,15.074,61.074,61.074,0,0,0,1.158,6.021c.315,1.156,1.936,3.841,1.54,4.926l3.075-1.746c-6.215-2.61-12.035-6.215-18.238-8.855-2.927-1.246-5.478,3.06-2.524,4.317,6.621,2.818,12.809,6.578,19.432,9.359,1.316.552,2.662-.614,3.075-1.746.974-2.666-1.227-6.82-1.767-9.482-1.086-5.355-1.834-11.073-1.016-16.539.471-3.148-4.346-4.506-4.821-1.329Z" style="fill:#231f20"/><path d="M154.332,11.118c.065.615.672,1.232,1,1.75s.587,1.1.906,1.625c.684,1.134,1.207,2.383,1.929,3.5a12.591,12.591,0,0,1,1.1,1.611c.308.688.687,1.361,1.056,2.014a14.684,14.684,0,0,0,1.276,1.493c.456.607.7,1.361,1.224,1.95.258.29.6.416.876.675.318.3.319.626.533.986a8.716,8.716,0,0,0,1.41,1.445c.61.6,1.179,1.2,1.8,1.8.527.509,1.132.9,1.655,1.4,1.077,1.047,2.084,2.064,3.25,3a10.55,10.55,0,0,0,1.669,1.444,8.085,8.085,0,0,1,1.763,1.123c-1.217.821-3.25.875-4.632,1.128a10.813,10.813,0,0,1-2.118.3c-.9-.008-1.792,0-2.687,0a14.3,14.3,0,0,1-2.241-.021c-.842-.138-1.67-.392-2.512-.479a11.846,11.846,0,0,1-2.146-.618c-.385-.119-.737-.3-1.107-.45-.3-.122-.782-.159-.994-.431" style="fill:#fff200"/><path d="M152.174,12.38c4.792,10.891,12.838,19.762,22.334,26.715V34.777c-4.221,1.973-11.862,1.816-15.914-.568-2.779-1.635-5.3,2.685-2.524,4.317,5.693,3.35,15.067,3.322,20.961.568,1.871-.874,1.357-3.324,0-4.317a62.7,62.7,0,0,1-20.54-24.921c-1.293-2.939-5.6-.4-4.317,2.524Z" style="fill:#231f20"/><path d="M57.007,145.4c3.913,9.044-4.625,23.578-19.888,26.993C26.5,174.766,46.427,185.312,52.4,195.341c4.836,8.114,11.781,15.5,18.335,22,11.615,11.51,13.8,4.793,20.96-7.971,4.463-7.956,9.88-15.762,13.831-23.92,1.709-3.528,19.026-18.257,15.065-18.635-7.957-.758-18.4-1.566-21.975-7.635-6.086-10.336,3.21-17.187-9.739-17.188-4.5,0-28.647-1.974-31.4,2.036" style="fill:#fff"/><path d="M54.6,146.061c4.32,11.286-8.011,21-17.436,23.741-8.007,2.325-5.58,7.9-.768,12.6,3.7,3.612,7.826,6.813,11.237,10.721,4.049,4.639,6.969,10.211,10.977,14.944,4.3,5.081,8.983,10.451,14.286,14.511,2.949,2.257,6.6,4.13,10.284,2.533,3.666-1.588,5.82-5.778,7.68-9.063,3.6-6.358,7.315-12.62,11.068-18.89,2.712-4.53,4.656-9.617,8.266-13.5,2.748-2.96,5.688-5.738,8.446-8.69,3.667-3.924,8.378-9.982.031-10.834-5.311-.542-12.97-.8-16.931-4.971-3.591-3.786-2.508-8.533-2.948-13.14-.8-8.345-11.964-6.617-18.048-6.843a124.167,124.167,0,0,0-15.716.109c-3.015.272-7.166.491-9.307,2.974-2.091,2.426,1.43,5.978,3.536,3.536,1.567-1.818,6.221-1.578,8.322-1.68,4.039-.2,8.092-.112,12.131.025,2.761.094,5.52.253,8.281.335,4.779.142,5.835-.033,5.8,4.621-.065,7.774,2.914,14.38,10.453,17.32A36.85,36.85,0,0,0,117.345,169l.667.068q2.638.881.773-2.184c-.058,0-.82,1.33-.912,1.406a44.655,44.655,0,0,0-3.428,3.832c-4.135,4.357-9.09,8.3-11.881,13.694-3.116,6.022-6.774,11.718-10.249,17.533-2.836,4.746-5.124,10-8.389,14.469-3.315,4.539-6.423,2.338-10.119-1a123.583,123.583,0,0,1-13.3-14.266c-3.227-4.015-5.611-8.616-8.952-12.524a110.926,110.926,0,0,0-9.621-9.283,30.6,30.6,0,0,1-4.321-4.3c-1.514-2.108-.68-1.343,1.581-2a32.128,32.128,0,0,0,12.816-7.079c6.027-5.507,10.519-14.508,7.407-22.637-1.139-2.975-5.975-1.684-4.821,1.329Z" style="fill:#231f20"/><path d="M170.844,225.261c.413-5.773-2.086-13.519-3.079-19.323-1.723-10.075-.567-22-6.833-30.763-3.828-5.351-9.121-6.671-15.353-7.285-7.823-.771-15.7-1.1-23.555-1.221-3.869-.061-4.381.206-7.423,2.512a60.041,60.041,0,0,1-5.114,3.332c-4.255,2.6-8.637,4.977-12.859,7.569a53.674,53.674,0,0,1-11.551,4.545c-3.785.891-7.4-.781-11.722-1.9-8.837-2.288-17.221-5.276-25.99-7.673-2.382-.651-4.771-1.662-7.158-2.221-2.645-.62-4.9-.009-7.561.559-5.42,1.16-10.721,1.667-16.212,2.286-9.407,1.06-19.12,3.572-22.359,13.616-3.145,9.754-1.209,21.584-1.093,31.67.052,4.553.339,4.565,3.83,4.625l25.725.444,89.393,1.542,41.019.708c3.761.065,7.522.115,11.282.195C167.521,228.549,170.527,229.7,170.844,225.261Z" style="fill:#e6e7e8"/><path d="M173.344,225.261c.241-7.213-2.286-14.06-3.335-21.117-1.024-6.893-.909-13.956-2.683-20.735-1.557-5.949-4.678-11.82-10.17-14.967-5.7-3.269-13.053-3.275-19.415-3.683q-6.867-.44-13.752-.554c-2.809-.051-5.541-.248-8.1,1.071-2.935,1.515-5.615,3.848-8.467,5.561-3.99,2.4-8,4.81-12.058,7.087a45.366,45.366,0,0,1-8.32,3.524c-4.623,1.49-8.522.122-13.027-1.132-9-2.5-17.953-5.209-26.884-7.944-3.27-1-6.486-2.414-9.968-2.273-4.025.163-8.049,1.5-12.038,2.054-7.035.975-14.413,1.086-21.09,3.757-13.587,5.435-14.67,19.634-14.119,32.53.155,3.64.423,7.276.53,10.918.062,2.112-.315,5.073,1.039,6.9.985,1.332,2.295,1.582,3.857,1.774,4.327.532,8.982.184,13.34.259l56.562.976,63.286,1.092q15.5.267,31,.529c5.256.089,12.619,2.033,13.723-4.966.5-3.148-4.321-4.5-4.821-1.329-.4,2.547-3.984,1.4-6.081,1.345-3.784-.1-7.57-.126-11.355-.191q-12.7-.217-25.393-.438l-47.444-.819-47.676-.823-23.777-.41-5.937-.1c-1.009-.017-4.149.472-5.007-.093l-.13.444-.121-1.189c-.64-1.5-.117-4.6-.194-6.249-.618-13.236-3.333-31.267,12.522-36.213,5.688-1.774,11.755-1.95,17.622-2.739,3.166-.426,6.262-1.081,9.4-1.652,4.847-.882,9.125,1.182,13.711,2.52,6.8,1.984,13.534,4.21,20.355,6.131,6.258,1.763,12.376,4.335,18.843,2.349,5.4-1.658,10.068-4.249,14.92-7.076,2.689-1.567,5.4-3.1,8.057-4.719,2.619-1.589,5.431-4.454,8.352-5.355,3.639-1.123,8.987-.031,12.749.13,4.579.2,9.171.452,13.729.943,8.061.868,13.584,4.271,16.295,12.177,2.407,7.02,2.153,14.643,3.164,21.919.965,6.943,3.543,13.7,3.306,20.774C168.237,228.48,173.237,228.476,173.344,225.261Z" style="fill:#231f20"/><polygon points="-16.82 224.761 -19.474 186.433 -22.343 139.232 8.934 137.753 16.937 161.316 10.44 193.382 10.943 224.761 -16.82 224.761" style="fill:#fff200"/><path d="M71.884,2.632c20.32,0,39.8,3.262,54.032,18.536,14.318,15.367,21.532,37.125,20.772,57.689-1.47,39.783-38.131,80.286-81.568,72.619-39.678-7-72.4-41.363-66.464-81.454C1.27,52.359,6.873,32.552,18.984,18.667,25.38,11.335,33.771,6.975,43.334,4.9,49.833,3.5,65.9,6.752,70.78,2.632" style="fill:#fff"/><path d="M71.884,7.007c15.4.065,31.52,1.869,44.289,11.267,13.162,9.688,21.233,25.892,24.541,41.578,5.987,28.387-5.651,58.675-29.091,75.875-11.2,8.221-24.661,12.891-38.621,12.246-14.332-.661-28.655-6.43-40.361-14.537-11.186-7.747-20.565-18.6-25.776-31.241C1.124,88.272,1.785,74.054,5,59.613,8.8,42.563,16,22.56,32.183,13.6,39.2,9.708,45.91,8.768,53.752,9.034c6.058.206,14,1.154,19.236-2.624,4.525-3.264.162-10.857-4.416-7.555C63.718,2.355,54.4.162,48.8.152A43.966,43.966,0,0,0,27.12,6.4C11.677,15.278,3.265,33-1.455,49.481-6,65.361-8.421,82.123-3.744,98.25.513,112.925,9.648,126,21.34,135.745c24.64,20.528,59.763,28.309,88.475,11.615,27.233-15.834,43.947-48.023,40.92-79.368-1.9-19.657-10.207-39.833-25.1-53.233C110.864,1.47,91.086-1.662,71.884-1.743c-5.631-.024-5.638,8.726,0,8.75Z" style="fill:#231f20"/><polyline points="-10.951 224.809 -15.424 203.009 -21.911 161.067 -4.616 109.18 24.137 129.915 15.431 161.316 11.709 176.965 9.357 215.463 7.596 224.7" style="fill:#fff200"/><path d="M112.216,28.006C85.105,29.728,57.577,40.593,46.2,57.694c-9.316-9.927,1.1-32.742,7.9-40.807,12.32-14.618,28.908-9.74,43.684-1.951" style="fill:#e4d41d"/><path d="M112.216,25.506c-24.422,1.719-53.5,9.65-68.173,30.927l3.926-.506c-8.119-9.464.728-27.694,6.9-36C65.8,5.248,82.638,9.886,96.521,17.095c2.852,1.481,5.383-2.832,2.524-4.317C82.948,4.419,63.684.148,51.118,16.654,43.012,27.3,34.283,47.63,44.434,59.462c1.123,1.309,3.083.718,3.926-.506C61.915,39.3,89.743,32.087,112.216,30.506c3.192-.225,3.216-5.226,0-5Z" style="fill:#231f20"/><path d="M139.858,122.239c13.529-27.057,21.692-53.746,12.963-84.124C146.26,15.278,133.388,4.161,116.476-1.915c-3.339-1.2-6.836,1.044-10.472.186S98.59-6.546,94.691-7.165c-4.051-.643-8.234-1.185-12.529-1.683C42.74-13.419,5.715,6.428-3.274,46.6-6.969,63.109-9.9,80.706-6.142,97.507c1.464,6.551,14.509,36.645,27.032,34.031,7.8-1.629,18.129-47.866,20.067-54.443,5.449-18.49,16.414-57.316,39.7-59.342,9.929-.864,13.93,3.8,21.191,9.82,3.248,2.693,16.3-3.443,20.97-1.294,5.245,2.415,11.079,11.164,13.221,16.082,4.473,10.267,5.653,27.238,6.98,38.392a164.544,164.544,0,0,1,1.168,17.379c.041,2.225-.661,26.231-.619,14.827" style="fill:#fff200"/><path d="M13.18,223.064c-.422-14.517-.689-28.991,2.241-43.292,2.667-13.018,5.983-25.9,9.613-38.68,7.253-25.542,15.427-50.905,23.733-76.123C54.645,47.122,66.4,16.892,90.615,21.988c5.178,1.09,6.666,5.338,10.665,8.09,2.864,1.971,5.711,1.369,9.027.857,3.818-.589,8.367-3.03,12.241-2.3,5.964,1.123,9.372,9.692,11.271,14.638a110.811,110.811,0,0,1,7.354,40.083c.017,14.167-1.694,28.255-2.624,42.374-.212,3.212,4.789,3.2,5,0,.911-13.827,2.575-27.623,2.625-41.495a117.185,117.185,0,0,0-6.191-38.528c-2.764-8.2-7.635-21.8-18.093-22.184-3.991-.145-7.757,1.655-11.616,2.37-2.65.491-4.814,1.161-6.978-.57-1.922-1.538-3.038-3.832-4.97-5.378C90.547,13.718,76.6,16.485,69.012,21.7,60.259,27.7,54.526,37.8,50.254,47.244c-5.034,11.13-8.34,22.906-12.044,34.517-4.422,13.864-8.927,27.7-13.166,41.623-4.974,16.337-9.588,32.8-13.256,49.482-3.678,16.73-4.105,33.117-3.608,50.2.093,3.211,5.094,3.224,5,0Z" style="fill:#231f20"/><path d="M23.1,59.649c6.144-22.6,29.455-66.427,58.659-48.359,2.744,1.7,5.258-2.626,2.524-4.317C51.693-13.19,25.33,32.381,18.279,58.32c-.845,3.109,3.977,4.436,4.821,1.329Z" style="fill:#231f20"/><path d="M107.436,26.56c1.844-3.362,2.976-6.2,6.255-8.361a16.287,16.287,0,0,1,7.611-2.654,17.109,17.109,0,0,1,10.9,2.667c5.065,3.053,6.927,6.41,8.83,11.768,1.07,3.011,5.9,1.714,4.821-1.329-1.817-5.113-3.549-9.474-8.117-12.847-4.342-3.206-9.005-5.338-14.478-5.341A23.077,23.077,0,0,0,111.2,13.7c-4.17,2.545-5.819,6.215-8.079,10.337-1.548,2.823,2.768,5.349,4.317,2.524Z" style="fill:#231f20"/><path d="M67.44,36.518c-2.542-1.4-4.744-2.457-7.718-2.493-3.218-.039-3.22,4.961,0,5,2.134.026,3.343.791,5.195,1.811,2.82,1.553,5.346-2.763,2.524-4.317Z" style="fill:#231f20"/><path d="M76.55,33.379c-4.1-3.054-7.369-5.455-12.676-5.538-2.575-.04-2.576,3.96,0,4,4.5.07,7.207,2.42,10.657,4.992,2.065,1.539,4.061-1.931,2.019-3.454Z" style="fill:#231f20"/><path d="M86.872,31.162c-4.742-4.714-8.544-9.036-15.664-9.169-2.575-.048-2.575,3.952,0,4,5.88.11,8.955,4.14,12.836,8,1.828,1.817,4.657-1.01,2.828-2.828Z" style="fill:#231f20"/><path d="M95.538,28.287c-4.445-4.992-8.031-9.858-15.248-10-2.575-.052-2.575,3.948,0,4,5.884.118,8.838,4.81,12.419,8.831,1.715,1.926,4.536-.911,2.828-2.828Z" style="fill:#231f20"/><path d="M8.505,102.2C6.687,110.552,3.343,118.355.764,126.47c-2.491,7.839-3.628,16.036-6.593,23.733-1.158,3,3.675,4.306,4.821,1.329,2.965-7.7,4.1-15.893,6.593-23.733,2.579-8.115,5.923-15.917,7.741-24.267.683-3.137-4.136-4.477-4.821-1.329Z" style="fill:#231f20"/><path d="M19.565,11.177A120.536,120.536,0,0,0,2.519,37.185c-4.34,9.01-8.871,19.47-10.527,29.352-.527,3.148,4.29,4.5,4.821,1.329C-1.6,58.421,2.7,48.306,6.836,39.708a115.655,115.655,0,0,1,16.264-25c2.08-2.434-1.441-5.986-3.536-3.536Z" style="fill:#231f20"/><path d="M109.35,4.3c4.545-4.944,9.236-6.872,15.9-6.934,3.216-.03,3.224-5.03,0-5-7.924.074-14.028,2.518-19.434,8.4-2.175,2.365,1.352,5.91,3.536,3.536Z" style="fill:#231f20"/><path d="M145.225,27.85c-5.414-6.916-12.19-13.13-21.368-13.78s-16.948,5.392-21.683,12.786c-1.74,2.718,2.586,5.228,4.317,2.524,4.347-6.789,11.537-11.832,19.859-9.9,6.582,1.529,11.337,6.793,15.339,11.9,1.982,2.531,5.5-1.029,3.536-3.536Z" style="fill:#231f20;opacity:0.15;mix-blend-mode:darken"/><path d="M22.741,60.38C26.486,54.518,29.11,48.108,32.391,42A80.254,80.254,0,0,1,44.8,24.954c4.461-4.728,9.879-10.295,15.828-13.071,6.881-3.211,15-1.17,22.193-.447,3.2.321,3.177-4.681,0-5-7.479-.751-15.354-2.489-22.646.231-6.32,2.358-11.851,7.739-16.588,12.384a87.143,87.143,0,0,0-13.811,17.4c-4.145,6.95-6.985,14.571-11.35,21.4-1.738,2.72,2.588,5.23,4.317,2.524Z" style="fill:#231f20;opacity:0.15;mix-blend-mode:darken"/><path d="M18.922,12.2c-1.247,4.634-5.039,8.984-7.314,13.227C9.02,30.256,6.124,34.9,3.523,39.724,1.093,44.229-.943,48.909-3.2,53.5-5.265,57.72-7.81,62.06-8.293,66.78c-.327,3.2,4.675,3.175,5,0,.524-5.126,4.521-10.717,6.64-15.361C5.486,46.733,7.8,42.17,10.356,37.7c2.434-4.253,4.851-8.494,7.186-12.8,2.07-3.821,5.053-7.1,6.2-11.362.837-3.111-3.985-4.438-4.821-1.329Z" style="fill:#231f20;opacity:0.15;mix-blend-mode:darken"/><path d="M8.549,104.5c1.532,2.548-1.726,9.413-2.469,11.9-1.328,4.454-2.6,8.913-3.77,13.412-2.251,8.69-4.464,17.487-7.264,26.008-1.007,3.064,3.82,4.377,4.821,1.329,3.405-10.363,5.848-21.066,8.745-31.589,1.322-4.8,2.8-9.566,4.206-14.343.934-3.163,1.854-6.239.047-9.244-1.657-2.754-5.982-.244-4.317,2.524Z" style="fill:#231f20;opacity:0.15;mix-blend-mode:darken"/><path d="M58.247,45.532c5.8-6.206,8.92-13.981,16.637-18.3a21.058,21.058,0,0,1,12.391-2.883c4.581.432,8.231,3.114,12.526,4.448,2.464.765,3.518-3.095,1.063-3.857-4.721-1.467-8.52-4.183-13.59-4.591a24.06,24.06,0,0,0-11.726,2.087,30.226,30.226,0,0,0-10.981,8.029c-3.292,3.916-5.642,8.487-9.149,12.24-1.756,1.879,1.066,4.714,2.828,2.828Z" style="fill:#231f20;opacity:0.15;mix-blend-mode:darken"/><path d="M108.5,5.028a143.4,143.4,0,0,0,15.6-7c2.851-1.495.326-5.812-2.524-4.317a132.44,132.44,0,0,1-14.4,6.5c-2.978,1.133-1.686,5.969,1.329,4.821Z" style="fill:#231f20;opacity:0.15;mix-blend-mode:darken"/><g style="opacity:0.1"><path d="M53.214,149.087a90.124,90.124,0,0,0-24.633-11.63,2.491,2.491,0,0,0-1.082-.1,2.616,2.616,0,0,0-4.583,1.51c-.309,5.595-2.873,11.3-4.571,16.6a101.425,101.425,0,0,0-4.286,16.884,2.545,2.545,0,0,0,2.411,3.165c13.346.163,33.154-2.224,39.188-16.214C57.95,153.988,58.045,152.336,53.214,149.087Z" style="fill:#231f20"/><path d="M136.875,116.63c-2.024,4.8-4.2,9.617-6.6,14.336l-.67,1.016a2.145,2.145,0,0,0-2.628-.085c-5.055,3.263-9.8,6.909-14.541,10.609-4.066,3.176-8.8,5.682-12.733,8.945-6.1,5.058-.52,15.729,6.974,15.435,4.5-.176,7.961-4.425,10.707-7.507A100.854,100.854,0,0,0,125.4,149a177.021,177.021,0,0,0,16.3-31.04C142.945,115,138.108,113.705,136.875,116.63Z" style="fill:#231f20"/></g><path d="M14.832,181.868A84.468,84.468,0,0,0,45.2,176.8c9.124-3.47,18.608-13,19.382-23.187.244-3.209-4.757-3.194-5,0-.395,5.2-4.824,10.427-8.462,13.719a29,29,0,0,1-12.608,6.421,94.088,94.088,0,0,1-23.68,3.11c-3.218-.03-3.221,4.97,0,5Z" style="fill:#231f20;opacity:0.15;mix-blend-mode:darken"/><path d="M167.767,86.906c-.744,5.223.53,14.3,7.7,28.892-2.745,3.179-16.55-9.26-18.294-16.593" style="fill:#fff200"/><path d="M165.267,86.906c-1.272,10.344,3.679,21.113,8.038,30.154l.391-3.03c.834-.7.032.106-.742-.611a9.938,9.938,0,0,0-1.536-.867,28.146,28.146,0,0,1-4.989-4.089c-2.821-2.764-5.732-6.05-6.848-9.923-.89-3.086-5.716-1.774-4.821,1.329,1.7,5.892,6.461,11.04,11.133,14.809,2.973,2.4,7.7,5.943,11.339,2.887a2.543,2.543,0,0,0,.391-3.03c-3.992-8.278-8.521-18.151-7.356-27.631.392-3.186-4.612-3.158-5,0Z" style="fill:#231f20"/><path d="M26.917,125.508c-.2.677-.421,1.346-.619,2.021a7.434,7.434,0,0,0-.2,1.549c-.149,1.218-.613,2.427-.831,3.64a33.34,33.34,0,0,0-.838,4.673,40.136,40.136,0,0,1-.495,4c-.135,1.09.01,2.212-.07,3.315-.047.652-.249,1.2-.307,1.852-.06.683,0,1.446,0,2.139-.008.988.3,5.944-.279,6.3a26.6,26.6,0,0,1-2.922-4.2c-.427-.826-1.009-1.373-1.488-2.138-.447-.715-.954-1.324-1.409-2.037a46.241,46.241,0,0,0-2.75-3.9,17.978,17.978,0,0,1-1.2-1.953c-.468-.785-1.166-1.058-1.588-1.936" style="fill:#fff200"/><path d="M24.506,124.843a78.7,78.7,0,0,0-3.026,16.218c-.2,2.339-.408,4.753-.434,7.1-.015,1.383.692,4.421.072,5.576l3.926-.506c-4.049-5.176-7.331-10.965-11.356-16.161-1.968-2.54-5.483,1.021-3.536,3.536,4.034,5.208,7.3,10.98,11.356,16.161.988,1.263,3.233.786,3.926-.506,1.608-2.994.608-7.908.884-11.222.53-6.348,1.127-12.745,3.008-18.869.947-3.083-3.878-4.4-4.821-1.329Z" style="fill:#231f20"/><path d="M171.916,32.7c-4.578-.177-8.545-5.006-11.311-8.128-3.571-4.032-5.781-8.7-8.276-13.435-3.992-7.583-8.209-13.43-15.485-18.1-2.717-1.742-5.227,2.584-2.524,4.317a31.609,31.609,0,0,1,10.122,9.7c2.951,4.714,4.89,10.052,7.843,14.76,4.124,6.575,11.165,15.558,19.63,15.886,3.218.125,3.212-4.875,0-5Z" style="fill:#231f20;opacity:0.1;mix-blend-mode:darken"/><path d="M173.35,111.433c-8.979-10.358-7.2-25.645-6.934-38.427.125-5.92.585-11.891-.077-17.8-.253-2.263-.673-4.612-1.1-6.846-.59-3.076-2.223-6.033-2.488-9.157-.271-3.182-5.273-3.211-5,0,.473,5.554,3,10.789,3.591,16.42.752,7.18.312,14.522-.174,21.7a95.337,95.337,0,0,0,.7,19.368c1.022,7.163,3.159,12.755,7.948,18.279,2.111,2.436,5.635-1.114,3.536-3.536Z" style="fill:#231f20;opacity:0.1;mix-blend-mode:darken"/><path d="M148.35,156.969A30.361,30.361,0,0,0,152,150.723c2.178-4.3,4.437-8.454,6.237-12.943,3.55-8.848,3.574-18.732,6.088-27.915.851-3.108-3.971-4.434-4.821-1.329-1.16,4.236-1.721,8.586-2.64,12.872-.871,4.061-.987,8.324-2.354,12.274a87.828,87.828,0,0,1-5.6,12.318c-1.415,2.657-2.288,5.3-4.1,7.434-2.07,2.44,1.451,5.994,3.536,3.536Z" style="fill:#231f20;opacity:0.1;mix-blend-mode:darken"/><path d="M9.507,140.963a57.43,57.43,0,0,1,3.5,9.212,50.419,50.419,0,0,1,2.251,8.524c.427,3.174,5.245,1.822,4.821-1.329a50.959,50.959,0,0,0-2.615-9.687,65.236,65.236,0,0,0-3.637-9.244c-1.518-2.839-5.836-.316-4.317,2.524Z" style="fill:#231f20;opacity:0.1;mix-blend-mode:darken"/></g><path d="M80.064,81.161a.9.9,0,0,0-.132-.007c-.024,0-.047-.006-.071,0s-.033.013-.052.015a.939.939,0,0,0-.214.02c-1.614.493-3.358,1.927-3.273,3.8A3.308,3.308,0,0,0,79.98,88.04a3.558,3.558,0,0,0,3.509-3.129A3.7,3.7,0,0,0,80.064,81.161Z" style="fill:#231f20"/><path d="M103.86,81.311c-.736-1.559-2.164-1.658-3.573-1.476a.4.4,0,0,1-.266.036c-2.265.423-3.65,3.321-2.011,5.175,1.225,1.385,3.686,1.928,5.124.572A3.859,3.859,0,0,0,103.86,81.311Z" style="fill:#231f20"/><path d="M92.276,96.376c-2.621.2-5.241.439-7.861.658-.035,0-.058.021-.091.026a.854.854,0,0,0-.873.708c-2.122,9.394,12.872,11.155,14.775,2.447C99.2,95.77,95.373,96.137,92.276,96.376Zm3.949,3.662a5.856,5.856,0,0,1-5.114,3.928c-3.25.314-6.172-1.726-5.841-5,2.724-.221,5.453-.418,8.172-.673C94.906,98.156,96.839,97.809,96.225,100.038Z" style="fill:#231f20"/></g></svg>