<svg xmlns="http://www.w3.org/2000/svg" width="565.1" height="279.4" viewBox="0 0 565.1 279.4">
	<g>
		<path d="M103.5,23.6c-3.2-1.9-7.9-1.5-10.4,1.3C82.7,36.4,68.6,40.6,53.9,36.6c-6.8-1.8-13.6-5.1-18.7-10.1a43.527,43.527,0,0,1-7-9c-2.2-3.6-4.5-7-5.6-11.1s-7.7-3.4-7.5,1c.2,5.1.1,10,1.9,14.8a43.039,43.039,0,0,0,7.8,13.2A54.057,54.057,0,0,0,49.1,52.1a53.864,53.864,0,0,0,40.2-2.5c-2.1,24.8-5.7,49.6-9.8,74.1-3.8,22.7-7.6,45.6-12.1,68.2-3.8,19.3-7.9,41.7-19.9,57.9-2.5,3.4-5.8,6.9-9.8,8.5a8.31,8.31,0,0,1-6.9,0c-7.5-3.3-9.8-14.8-9.9-22.4C20.5,212,37.6,190,60.1,182.6c9.8-3.2,5.8-17.5-4.2-15.4-25.4,5.3-45.4,30.3-50.3,54.9-2.6,12.8-1.9,27,4.6,38.6,5.2,9.2,14.8,16.2,25.7,15.2,25.2-2.2,36.1-33.7,41.8-54.3,6.4-23.2,8.9-47.1,13.1-70.7,6.9-39.1,10.6-78.6,16.7-117.7C108.1,29.5,107.1,25.6,103.5,23.6Z" fill="#ff543c"/>
		<path d="M130.9,166.1c-3.7,7.6-5,16.6-10.2,23.3a16.738,16.738,0,0,1-5.8,5.1,6.667,6.667,0,0,1-2.1.9c-.4.1-.8.2-1.3.3a4.819,4.819,0,0,1-1.2,0,6.382,6.382,0,0,1-2.6-1.3c-1.3-1.2-1.9-2.5-2.6-4.9-2.1-8.2-.9-16.4.1-24.7.4-3.6-4.6-4.1-6.3-1.7-6.1,8.7-10.3,21.1-6.9,31.6,2.4,7.5,8.1,13.5,16.1,14.8,21.5,3.7,37-23.6,34.1-42C141.5,162.4,133.2,161.5,130.9,166.1Z" fill="#ff543c"/>
		<path d="M188.1,159.8c-1.4-4.3-6.8-3.9-8.3,0-2.3,5.9-2,13.4-2.7,19.7-.7,6.8-1.9,13.7-2.3,20.5-.5,10.2,15.8,10.3,15.9,0,.1-6.8-.8-13.7-1.1-20.5C189.4,173.1,190.1,165.8,188.1,159.8Z" fill="#ff543c"/>
		<path d="M290.7,161.8c-9.3.1-16.6,5.6-20.9,13.5-.8-6.5-2.1-13.7-6.6-18.4-1.5-1.5-4.7-1-5.1,1.3-1,6.5.6,13.4.5,20.1a118.437,118.437,0,0,1-2.2,21.3c-1.2,6.4,4.7,10.8,10.5,8.1,6-2.8,10-8,12.8-13.9,2.3-4.8,4.3-11.1,8.2-14-.2.2.7-.3,1.3-.4a7.442,7.442,0,0,1,2.6-.2,7.67,7.67,0,0,1,4.8,2.8c3.7,4.5,3.5,9.3.9,13.9-4.8,8.3,7.3,18.6,13.8,10.6C324.5,190.1,313.1,161.5,290.7,161.8Z" fill="#ff543c"/>
		<path d="M471.4,179.3a26.98,26.98,0,0,0,14.3-10.5c5.8-9.1,2.9-21.8-8.5-24.2-13.1-2.8-26.9,6.5-32.1,18.2-5.1,11.4-4.9,25.6,1.2,36.7A24.769,24.769,0,0,0,461,211.7c8.5,2.3,16.1-1.4,22.7-6.5,8-6.2-2.5-19.9-10.9-14.1-1,.7-2,1.3-3,1.9-.3.2-.6.3-.9.5l-.2.1c-.6.2-1.3.4-1.9.6h-1.7c-.2-.1-.3-.1-.5-.2-.5-.3-.4-.1-.3.1a1.38,1.38,0,0,1-.3-.4c-1.2-1.5.4.6-.7-.5-.2-.2-.9-1-1.2-1.3-.2-.4-.9-1.4-1-1.6-.2-.4-1-2-1-1.9-.2-.7-1.1-3.4-1.4-4.9-.1-.8-.2-1.5-.3-2.3A36.311,36.311,0,0,0,471.4,179.3Zm-6.5,14.6C466,194,465.5,194.1,464.9,193.9Zm10-35v.3h0c0-.1-.1-.1-.1-.2-.2-.4,0-.3.1-.1Zm0,.4Zm-12.8,5.6a16.858,16.858,0,0,1,9.3-5.7,16.279,16.279,0,0,1,3.1-.3c-.3,0,.2.3.4.4.2,1-.1,1.2-.4,2a11.645,11.645,0,0,1-2.4,3.4,14.359,14.359,0,0,1-4.6,3.1,26.545,26.545,0,0,1-8.1,1.7,27.533,27.533,0,0,1,2.7-4.6Z" fill="#ff543c"/>
		<path d="M511.4,195.2c-.1-.4-.2-.9-.3-1.3v-.1c0-.4-.1-.8-.1-1.2-.2-2.3-.2-4.5-.2-6.8.1-13.2,1.9-27,3.7-39.6,4.4-31,10.6-61.7,16.8-92.3,1.6-7.7,2-16,4.6-23.4,1.5-4.1-5-5.8-6.5-1.8-8,20.9-12.8,43.5-18,65.2-4.2,17.1-8.1,34.3-11.5,51.6-2.8,14.1-5.5,28.5-6.1,42.9-.2,5.1-.3,10.7,1.8,15.4,2.9,7,9.9,9.3,16.6,6.2C519.1,206.9,516.9,198.2,511.4,195.2Zm.4,1.9C511.9,197.2,511.9,197.3,511.8,197.1Z" fill="#ff543c"/>
		<path d="M164.6,193.2c-.1-.4-.2-.9-.3-1.3v-.1c0-.4-.1-.8-.1-1.2-.1-2.3-.2-4.5-.2-6.8.1-13.2,1.9-27,3.7-39.6,4.4-31,10.6-61.7,16.8-92.3,1.6-7.7,2-16,4.6-23.4,1.4-4.1-5-5.8-6.5-1.8-8,20.9-12.8,43.5-18,65.2-4.2,17.1-8.1,34.3-11.5,51.6-2.8,14.1-5.5,28.5-6.1,42.9-.2,5.1-.3,10.7,1.8,15.4,2.9,7,9.9,9.3,16.6,6.2C172.3,204.9,170.1,196.2,164.6,193.2Zm.4,1.9Z" fill="#ff543c"/>
		<path d="M555.5,160.8c-1.3-4.5-1.9-9-6.1-11.8a11.7,11.7,0,0,0-10.3-1.3,21.807,21.807,0,0,0-14.3,16.1c-1.5,7.8,2.6,14.5,5.7,21.3a16.273,16.273,0,0,1,1.3,3.7c.2,1.2.3.1,0,1.2-.2.8-.6,1.4-2.1,2.7-2.5,2.2-4.8,3.4-6.5,6.4-2.9,4.9.7,12.7,6.9,12.1,8.7-.8,16.4-9,17.9-17.5,1.2-7.1-2-13.3-5.4-19.2-2.5-4.3-4.9-7.3-2.6-11.5.8-1.5,2.4-3.8,4.1-4.5,2.6-1,4.9,2.3,5.9,4.5C551.5,166.2,556.4,164,555.5,160.8Z" fill="#ff543c"/>
		<path d="M244.2,184.2c.1-.3.1-.5.2-.8a32.092,32.092,0,0,0,1.2-9.3c-.1-3-2-5.7-2.7-8-2.2-8-12.5-5.4-13.4,1.8a17.852,17.852,0,0,0-.2,2.3,8.447,8.447,0,0,0-.5,1.7c-.5,1.9-.3,4.5-.5,6.1a28.935,28.935,0,0,1-3.3,9.9c-3,5.5-7.2,9-13.3,5.8-5.9-3.1-2.8-10.7,0-15.3a33.275,33.275,0,0,1,7.9-8.8c1.9-1.4,4-2.4,5.8-3.8,1.8-1.3,3-3.1,4.6-4.5,1.9-1.6.6-4.3-1.3-5-6.7-2.5-12-.8-17.7,3.4a41.445,41.445,0,0,0-12.8,14.8c-5.5,10.8-5.4,24.1,5.6,31.4,10.9,7.3,24.3,4.6,32.3-5.5.3-.3.5-.7.8-1,1.5,2.3,3,4.5,4.7,6.7,5.4,6.9,15.4-2.9,9.7-9.7A49.854,49.854,0,0,1,244.2,184.2Z" fill="#ff543c"/>
		<path d="M475.1,117.8c6-5.5-2.8-13.9-8.8-8.8-21.9,18.7-40.9,40.6-52.7,66.5-4.2-10.8-8.5-21.5-12-32.6-2.4-7.7-11.6-8.1-16-2.1-8.5,11.5-16,23.7-23.6,35.8-2.3-24-6.6-47.9-13.9-70.9a444.731,444.731,0,0,0-17.5-46.3A170.755,170.755,0,0,0,319,36.9c-4.6-7.2-8.2-15-13-22.1a3.705,3.705,0,0,0-5.1-1.1,3.787,3.787,0,0,0-1.3,4.9c3.7,7.9,8,15.6,10.9,23.8,2.6,7.4,5.6,14.6,8.3,21.9A380.763,380.763,0,0,1,332.4,110c7.1,30.9,12,62.1,13.1,93.9.3,9.6,11.8,11.7,17,4.6,10.3-14,18.8-29.3,28.1-44.1,4.9,13,10.1,25.8,14.5,39,2.6,7.6,14.7,8.8,16.7,0C429.4,170.2,450.1,140.7,475.1,117.8Z" fill="#ff543c"/>
		<path d="M184.7,119.7c-5.4,0-8.2,4.9-7.5,9.8.6,4.1.9,8.2,1.9,12.2.9,3.6,6.9,5,8.6,1.1,1.9-4.3,3-8.8,4.4-13.3C193.7,124.7,189.6,119.7,184.7,119.7Z" fill="#ff543c"/>
	</g>
</svg>
