<svg xmlns="http://www.w3.org/2000/svg" width="56.54" height="60.47" viewBox="0 0 56.54 60.47"><path d="M26.93,16.37q.91,7.51-1.17,11.84a8.6,8.6,0,0,1-7.18,4.95,7.41,7.41,0,0,1-3.68-.39,8.05,8.05,0,0,1-3-2L13.76,45.6l-8.34,1L0,2.47l7.72-1L8.38,4.4a8.36,8.36,0,0,1,2.43-2.93A7.48,7.48,0,0,1,14.46.1,8.8,8.8,0,0,1,22.66,3q3,3.48,4,11.33ZM18.36,15.3a27.66,27.66,0,0,0-.71-3.85,8.32,8.32,0,0,0-1.09-2.53A3.64,3.64,0,0,0,15,7.6a4.22,4.22,0,0,0-2.14-.22,4.39,4.39,0,0,0-2.19.84A4.16,4.16,0,0,0,9.39,10l1.84,15a4,4,0,0,0,1.64,1.34,4.64,4.64,0,0,0,2.41.25A3.49,3.49,0,0,0,18.46,24a16.65,16.65,0,0,0,.16-6.63Z" style="fill:#ff543c"/><path d="M29.56,44.14q-1-7.85,1.22-12A8.86,8.86,0,0,1,38,27.3a7,7,0,0,1,3.57.42,8.56,8.56,0,0,1,3,2l-2-16,8.4-1L56.54,58,49,58.93l-.78-3.2a9.45,9.45,0,0,1-2.5,3.16,6.94,6.94,0,0,1-3.63,1.48,8.75,8.75,0,0,1-8.19-3q-3.12-3.6-4-11.17Zm8.63,1.06A29.86,29.86,0,0,0,38.86,49a8.66,8.66,0,0,0,1,2.55,3.48,3.48,0,0,0,1.54,1.36,4.72,4.72,0,0,0,4.34-.63,4.66,4.66,0,0,0,1.3-1.81L45.3,35.89a4.62,4.62,0,0,0-1.73-1.55A3.9,3.9,0,0,0,41.3,34a4,4,0,0,0-2,.76,3.69,3.69,0,0,0-1.18,1.7,8.26,8.26,0,0,0-.42,2.76,29,29,0,0,0,.25,3.9Z" style="fill:#ff543c"/></svg>