<svg xmlns="http://www.w3.org/2000/svg" preserveAspectRatio="xMinYMax" width="730" height="357" viewBox="0 0 730 357"><title>Artboard 1</title><path d="M42.029,134.626l4.469,36L25.824,173.2,13.114,70.81l34.879-4.33q15.188-1.886,25.4,6.417T85.462,96.246q1.868,15.048-5.98,24.876t-23.67,11.793ZM39.89,117.4,54.1,115.634q5.906-.733,8.661-5t1.838-11.654q-.951-7.664-4.82-11.79a10.682,10.682,0,0,0-9.432-3.507l-14.416,1.79Z" style="fill:#ff543c"/><path d="M137.252,101.6l-6.68.258q-8.158,1.012-10.15,8.543l6.241,50.279-19.971,2.479L97.247,87.071l18.776-2.331,1.584,8.158q3.514-10.218,11.813-11.249a14.056,14.056,0,0,1,5.6.233Z" style="fill:#ff543c"/><path d="M184.078,154.979q-15.331,1.9-25.044-6.174t-11.826-25.093l-.751-6.048q-2.234-18,4.428-28.754t21.359-12.577q14.346-1.781,22.727,6.484t10.751,26.22l1.212,9.759-39.591,4.915q1.484,8.5,5.279,12.039t10.687,2.688a22.32,22.32,0,0,0,15.8-9.03l9.3,11.056a25.892,25.892,0,0,1-9.6,9.51A36.726,36.726,0,0,1,184.078,154.979Zm-18.313-45.139,19.9-2.47-.229-1.846q-1-6.864-3.545-10.149t-7.754-2.64q-5.2.647-7.093,4.7T165.765,109.841Z" style="fill:#ff543c"/><path d="M233.456,51.169l2.322,18.705,10.2-1.266,1.851,14.908-10.2,1.266,4.694,37.819q.56,4.509,2,6.046t4.957,1.1a18.714,18.714,0,0,0,4.65-1.077l1.78,15.487a31.216,31.216,0,0,1-10.734,3.261q-19.269,2.392-22.223-19.688l-5.025-40.479-8.79,1.091-1.851-14.908,8.79-1.091L213.556,53.64Z" style="fill:#ff543c"/><path d="M297.224,140.934q-15.331,1.9-25.044-6.174t-11.826-25.093l-.751-6.048q-2.234-18,4.428-28.754T285.39,62.288q14.346-1.781,22.726,6.484t10.752,26.22l1.211,9.759-39.59,4.915q1.484,8.5,5.279,12.039t10.688,2.688a22.322,22.322,0,0,0,15.8-9.031l9.3,11.057a25.892,25.892,0,0,1-9.6,9.51A36.731,36.731,0,0,1,297.224,140.934ZM278.911,95.8l19.9-2.471-.229-1.846q-1-6.864-3.545-10.149t-7.754-2.64q-5.2.646-7.093,4.7T278.911,95.8Z" style="fill:#ff543c"/><path d="M344,56.44l1.5,7.455a21.271,21.271,0,0,1,16.542-11.122q19.619-2.435,23.595,24.99l6.206,50-19.971,2.479-6.022-48.521q-.8-6.469-3.1-9.148T355.6,70.5q-5.416.672-7.749,6.6l6.861,55.272-19.97,2.479L325.3,58.762Z" style="fill:#ff543c"/><path d="M398.434,85.957q-2.323-18.7,2.862-28.7t17.281-11.5q8.788-1.091,15.569,5.779L429.415,13.42l20.041-2.488,13.408,108.012-18.072,2.244-1.874-7.623q-4.983,9.9-14.617,11.1-11.956,1.484-19.383-6.877T399.15,91.723Zm20.59,2.514q1.4,11.251,4.342,15.419t8.642,3.462a9.781,9.781,0,0,0,8.276-6.382l-4.312-34.738q-3.652-5.26-9.559-4.526a8.631,8.631,0,0,0-7.467,5.425q-1.982,4.745-.576,16.066Z" style="fill:#ff543c"/><path d="M508.643,92.554a6.26,6.26,0,0,0-3.007-4.375q-2.692-1.844-11.514-4.462-12.927-3.463-18.2-8.237a19.782,19.782,0,0,1-6.256-12.719,21.406,21.406,0,0,1,5.161-17.384q6.4-7.4,18.283-8.875,12.517-1.554,20.845,3.981t9.681,16.436l-19.9,2.47q-1.153-9.283-8.888-8.323a7.24,7.24,0,0,0-4.959,2.615,7.322,7.322,0,0,0-1.358,5.739,5.8,5.8,0,0,0,2.8,4.186q2.49,1.655,11.3,4.2,12.724,2.992,18.437,7.887t6.8,13.686a20.166,20.166,0,0,1-5.631,17.336q-6.9,7.14-19.344,8.685a32.247,32.247,0,0,1-15.173-1.437,24.988,24.988,0,0,1-11.151-7.862A23.618,23.618,0,0,1,471.4,93.964l18.916-2.348q.787,5.188,3.395,7.5t7.813,1.673Q509.541,99.8,508.643,92.554Z" style="fill:#ff543c"/><path d="M554.483,72.57l.844,6.8,3.709-.46.672,5.421-3.707.46,1.707,13.752a4.086,4.086,0,0,0,.728,2.2,2.037,2.037,0,0,0,1.8.4,6.778,6.778,0,0,0,1.691-.393l.647,5.632a11.371,11.371,0,0,1-3.9,1.187q-7.008.87-8.081-7.16l-1.827-14.72-3.2.4-.672-5.421,3.2-.4-.844-6.8Z" style="fill:#ff543c"/><path d="M562.993,91.558q-.781-6.29,1.741-10.238A11.343,11.343,0,0,1,581.2,79.276q3.412,3.212,4.2,9.554l.219,1.764q.784,6.316-1.716,10.236a11.43,11.43,0,0,1-16.507,2.037q-3.4-3.2-4.185-9.543Zm7.488.92q.927,7.462,4.89,6.969,3.656-.454,3.166-6.716l-.355-3.064a11.867,11.867,0,0,0-1.749-5.517,3.291,3.291,0,0,0-3.2-1.472,3.208,3.208,0,0,0-2.647,2.2,11.984,11.984,0,0,0-.335,5.775Z" style="fill:#ff543c"/><path d="M623.769,85.832q.835,6.725-.9,10.354t-6.334,4.2a6.71,6.71,0,0,1-6.182-2.531l.109,2.765-6.675.829-4.876-39.278,7.237-.9,1.72,13.86a6.452,6.452,0,0,1,5.054-3.432q4.6-.571,7.164,2.5t3.414,9.508Zm-7.46-.895q-.543-4.386-1.574-5.781a3.11,3.11,0,0,0-3.127-1.136,3.512,3.512,0,0,0-3.066,2.49l1.569,12.646a3.484,3.484,0,0,0,3.618,1.53,3.083,3.083,0,0,0,2.707-1.716q.639-1.46.2-5.39Z" style="fill:#ff543c"/><path d="M640.959,97.356q-5.575.692-9.107-2.245t-4.3-9.125l-.273-2.2q-.813-6.546,1.61-10.457t7.768-4.573q5.216-.647,8.264,2.357t3.91,9.535l.44,3.549-14.4,1.787a7.7,7.7,0,0,0,1.92,4.378,4.592,4.592,0,0,0,3.886.977,8.116,8.116,0,0,0,5.746-3.284l3.382,4.021a9.443,9.443,0,0,1-3.492,3.459A13.372,13.372,0,0,1,640.959,97.356ZM634.3,80.941l7.236-.9-.083-.672a7.924,7.924,0,0,0-1.289-3.69,2.861,2.861,0,0,0-2.819-.959,3.02,3.02,0,0,0-2.579,1.709A9.55,9.55,0,0,0,634.3,80.941Z" style="fill:#ff543c"/><path d="M38.061,282.649q-3.5-28.226,4.321-43.314T68.46,221.981q13.264-1.646,23.5,8.721l-7.14-57.517,30.244-3.754,20.234,163-27.273,3.386-2.829-11.5q-7.519,14.944-22.058,16.747-18.042,2.24-29.251-10.378T39.141,291.353Zm31.074,3.794q2.108,16.98,6.552,23.271t13.04,5.224q8.914-1.107,12.489-9.633l-6.507-52.424q-5.511-7.935-14.425-6.829-8.276,1.028-11.268,8.188t-.87,24.245Z" style="fill:#ff543c"/><path d="M203.377,236.806l-10.08.39q-12.312,1.528-15.317,12.893l9.419,75.875L157.26,329.7,143.007,214.882l28.334-3.517,2.391,12.312q5.3-15.42,17.827-16.976a21.2,21.2,0,0,1,8.448.353Z" style="fill:#ff543c"/><path d="M280.784,314.37a42.23,42.23,0,0,1-3.653-8.6q-6.7,12.04-20.49,13.751-14.434,1.792-25.116-6.581T218.956,289.4q-2.239-18.038,8.05-29.338t31.911-14.2l9.126-1.133-1.146-9.232q-.962-7.746-4.01-10.6t-8.142-2.222q-11.249,1.4-9.615,14.556L215.1,240.954a33.493,33.493,0,0,1,8.678-27.747q10.654-11.829,28.907-14.095,18.888-2.344,30.454,6.188t13.831,26.784l6.705,54.015q2.055,14.832,7.13,22.714l.224,1.8ZM260.4,295.135a16.89,16.89,0,0,0,8.239-3.07,14.376,14.376,0,0,0,4.607-5.421l-2.964-23.877-7.216.9q-7.641.948-11.438,6.377t-2.783,13.6Q250.426,296.373,260.4,295.135Z" style="fill:#ff543c"/><path d="M405.9,247.655l2.3-65.693,28.759-3.57-9.517,117.772-24.938,3.1L378.02,234.845l-7.989,68.446L344.986,306.4,306.962,194.53l28.865-3.583,18.2,63.256,7.271-66.418,21.33-2.648Z" style="fill:#ff543c"/><path d="M448.126,146.835a15.635,15.635,0,0,1,3.034-12.014q3.9-5.011,11.332-5.933t12.439,2.981a15.634,15.634,0,0,1,5.879,10.908,15.966,15.966,0,0,1-2.98,12.007q-3.838,5.112-11.373,6.044t-12.5-3.081A15.957,15.957,0,0,1,448.126,146.835Zm49.46,140.622L467.449,291.2,453.195,176.377l30.138-3.741Z" style="fill:#ff543c"/><path d="M534.058,166.339l2.259,11.25q8.514-14.739,24.963-16.784,29.606-3.675,35.607,37.712l9.366,75.45-30.139,3.741-9.09-73.223q-1.211-9.762-4.677-13.8t-10.787-3.132q-8.172,1.014-11.693,9.964l10.354,83.41-30.139,3.741L505.83,169.843Z" style="fill:#ff543c"/><path d="M616.625,210.828q-3.5-28.226,4.958-43.393T648.4,149.99q15.6-1.937,25.617,9.319l-.1-10.333,27.062-3.359,14.253,114.821q2.728,21.967-8.142,35.115T673.2,311.561a58.732,58.732,0,0,1-20.312-1.3q-10.871-2.479-16.687-7.682l7.5-22.05a32,32,0,0,0,11.939,5.9,33.889,33.889,0,0,0,13.189,1.218q10.08-1.251,13.886-6.627t2.58-16.1l-1.226-9.87q-7.2,12.316-21,14.028-18.36,2.279-30.158-10.749t-15.24-39Zm30.967,3.807q1.976,15.918,7.018,22.674t14.061,5.636q9.233-1.146,12.859-8.386L674.719,179.7a15.151,15.151,0,0,0-14.386-5.649q-8.914,1.107-12.3,8.962T646.658,207.1Z" style="fill:#ff543c"/></svg>