<svg version="1" xmlns="http://www.w3.org/2000/svg" width="300" height="300" viewBox="0 0 300 300"> <path class="st0" d="M143.6,84l-1.2-9.9c-3-24.7-9.4-42.6-19-53.6C113.8,9.5,100.9,5,84.6,7c-6.8,0.8-12.5,3-17.3,6.5 c-4.7,3.5-8.6,8.1-11.5,13.9l-3.1-13.6l-36.6,4.5l25.7,209l39.5-4.9l-8.6-70.2c4.1,4.3,8.8,7.5,14,9.5c5.2,2,11,2.6,17.4,1.8 c16.1-2,27.4-9.8,34-23.4C144.7,126.4,146.5,107.7,143.6,84z M103.5,120.2c-2.2,7-7.2,10.9-15,11.9c-4.5,0.6-8.3,0.1-11.4-1.2 c-3.1-1.4-5.7-3.5-7.8-6.3l-8.7-70.7c1.4-3.5,3.4-6.3,6.1-8.4c2.7-2.1,6.2-3.4,10.3-4c3.9-0.5,7.3-0.1,10.1,1 c2.8,1.2,5.3,3.2,7.4,6.2c2.1,3,3.8,7,5.2,12c1.4,5,2.5,11.1,3.4,18.2l1.2,9.9C106,102.8,105.8,113.3,103.5,120.2z M257.5,66.8 l-39.8,4.9l9.3,75.6c-4.2-4.3-8.9-7.5-14-9.5c-5.1-2.1-10.7-2.7-16.9-2c-16,2-27.4,9.6-34.3,22.8c-6.9,13.2-8.8,32.2-5.8,56.9 l1.2,9.9c2.9,23.9,9.3,41.5,19.2,52.9c9.8,11.3,22.8,16,38.8,14.1c6.7-0.8,12.4-3.2,17.2-7c4.8-3.8,8.7-8.8,11.8-15l3.7,15.1 l35.9-4.4L257.5,66.8z M232.9,253.9c-2.7,2.2-6.1,3.6-10.3,4.1c-4,0.5-7.4,0.1-10.3-1.1c-2.8-1.2-5.3-3.4-7.3-6.5 c-2-3.1-3.7-7.1-5-12.1c-1.3-4.9-2.3-10.9-3.2-17.9l-1.2-9.9c-0.9-7.1-1.3-13.2-1.2-18.5c0.1-5.2,0.7-9.6,2-13.1 c1.3-3.5,3.1-6.1,5.6-8c2.5-1.9,5.6-3.1,9.5-3.6c4-0.5,7.6,0.1,10.8,1.7c3.2,1.6,5.9,4,8.2,7.3l8.5,68.9 C237.6,248.9,235.6,251.7,232.9,253.9z"/> </svg>