<svg xmlns="http://www.w3.org/2000/svg" viewBox="0 0 350 520"><path d="M58.591 43.591 57.17 468.025l227.095.959V26.326L58.591 43.591z" style="fill:#c6beb3"/><path d="m57.091 43.591-.141 42.3-.34 101.555-.41 122.3-.354 105.785-.118 35.174c-.018 5.316-.811 11.3-.056 16.577a5.252 5.252 0 0 1 0 .742 1.521 1.521 0 0 0 1.5 1.5l76.691.324 122.28.517 28.124.118a1.521 1.521 0 0 0 1.5-1.5V44.481c0-5.595.787-11.842 0-17.4a5.654 5.654 0 0 1 0-.759 1.512 1.512 0 0 0-1.5-1.5l-76.581 5.859-120.996 9.26-28.1 2.15c-1.912.146-1.928 3.148 0 3l76.581-5.859 120.994-9.256 28.1-2.15-1.5-1.5v435.918c0 1.537-.6 4.541 0 5.982a2.5 2.5 0 0 1 0 .758l1.5-1.5-76.691-.324-122.28-.516-28.124-.119 1.5 1.5.141-42.3.341-101.555.409-122.3.355-105.786.117-35.173c.018-5.277.879-11.346.056-16.578a4.969 4.969 0 0 1 0-.742 1.5 1.5 0 0 0-2.998 0Z" style="fill:#afa69c"/><path d="m66.932 332.326 15.666-1V45.059L66.932 34.393v297.933z" style="fill:#87715f"/><path d="m66.932 333.826 15.666-1a1.529 1.529 0 0 0 1.5-1.5V64.807c0-6.076.248-12.212 0-18.285-.062-1.513-.008-1.927-1.211-3.077-4.255-4.066-10.319-7.025-15.2-10.348a1.511 1.511 0 0 0-2.257 1.3v297.929a1.5 1.5 0 0 0 3 0V34.393l-2.257 1.3 13.932 9.486a19.557 19.557 0 0 0 1.68 1.143c-2.684-1.434-.556-1.706-.689-1.142-.088.376.066.81 0 1.191-.8 4.635 0 10.143 0 14.831v270.124l1.5-1.5-15.666 1c-1.916.122-1.93 3.123.002 3Z" style="fill:#231f20"/><path d="M281.598 22.326 66.932 34.393l15.666 10.666 199-6.033v-16.7z" style="fill:#7c6859"/><path d="M281.6 20.826 209.085 24.9l-115.6 6.5-26.553 1.493a1.513 1.513 0 0 0-.757 2.8l9.044 6.158c2.127 1.448 4.821 4.145 7.386 4.713 2.047.453 4.854-.147 6.929-.21l43.184-1.309 119.453-3.622 29.427-.892a1.525 1.525 0 0 0 1.5-1.5v-16.7a1.5 1.5 0 0 0-3 0v16.7l1.5-1.5-77.7 2.356-109.64 3.319c-3.623.11-7.626.725-11.24.341-.965-.1.556.249.124.072-1.554-.637-3.081-2.1-4.465-3.04L67.689 33.1l-.757 2.8 72.513-4.076 115.6-6.5 26.555-1.498c1.918-.108 1.93-3.109 0-3Z" style="fill:#231f20"/><path d="m219.505 490.442-151.66 10.937V34.813l151.66 16.25v439.379z" style="fill:#9b8579"/><path d="m219.505 488.942-133.127 9.6-18.533 1.337 1.5 1.5V41.882c0-1.674.6-4.672 0-6.257a2.831 2.831 0 0 1 0-.812l-1.5 1.5 133.127 14.264 18.533 1.986-1.5-1.5v421.363c0 5.508-.85 11.792 0 17.254a5.1 5.1 0 0 1 0 .762 1.5 1.5 0 0 0 3 0V69.079c0-5.548.781-11.745 0-17.254a5.536 5.536 0 0 1 0-.762 1.541 1.541 0 0 0-1.5-1.5L86.378 35.3l-18.533-1.987a1.512 1.512 0 0 0-1.5 1.5v447.6c0 5.858-.783 12.335 0 18.155a6.3 6.3 0 0 1 0 .813 1.513 1.513 0 0 0 1.5 1.5l133.127-9.6 18.533-1.336c1.914-.145 1.93-3.145 0-3.003Z" style="fill:#231f20"/><path d="m67.845 113.443 151.66 11.683" style="fill:#917963"/><path d="M67.845 114.943 200.972 125.2l18.533 1.428c1.925.148 1.916-2.852 0-3L86.378 113.37l-18.533-1.427c-1.926-.149-1.916 2.852 0 3Z" style="fill:#231f20"/><g style="opacity:.15"><path d="M127.457 162.005v6.047a2.425 2.425 0 0 0 1.922 2.606l32.974 1.838c1.033.057 1.869-1 1.869-2.358v-5.959Z" style="fill:#231f20"/><path d="M126.457 162.005c0 3.494-1.145 8.758 3.264 9.672 4.93 1.022 10.635.593 15.651.872 5.317.3 11.064 1.278 16.382.913 4.682-.32 3.468-5.849 3.468-9.283a1.021 1.021 0 0 0-1-1l-36.765-2.174c-1.285-.076-1.281 1.924 0 2l21.326 1.261 12.341.73a19.661 19.661 0 0 0 2.793.165c.461-.041-.249-1.148-.695-.23-.435.9.141 2.664 0 3.662-.566 4.024-2.935 2.788-6.4 2.595l-13.912-.776c-3.762-.209-8.088.142-11.776-.656-1.806-.391-2.129.417-2.68-2.333-.333-1.665 0-3.711 0-5.418a1 1 0 0 0-1.997 0Z" style="fill:#231f20"/></g><path d="m162.353 170.986-32.974-1.858a2.427 2.427 0 0 1-1.922-2.607v-26c0-1.38.861-2.44 1.922-2.367l32.974 2.264a2.418 2.418 0 0 1 1.869 2.591v25.617c0 1.363-.836 2.418-1.869 2.36Z" style="fill:#bcbcbc"/><path d="m162.353 169.986-25-1.409c-2.536-.143-8.126.862-8.891-2.255-.888-3.618 0-8.588 0-12.3 0-3.927-.942-9.222 0-13.06.751-3.056 5.57-1.486 8.045-1.316l16.558 1.137c2.357.162 8.306-.511 9.708 1.457.9 1.264.454 3.491.454 4.961v8.619c0 1.933 1.466 13.421-1.134 14.2a1 1 0 0 0 .531 1.929c3.828-1.148 2.6-6.875 2.6-9.963 0-5.918.278-11.908 0-17.82-.153-3.261-1.261-4.542-4.4-4.851-5.62-.553-11.293-.776-16.927-1.163-4.41-.3-9.971-1.656-14.359-.986-3.827.585-3.076 4.659-3.076 7.608v18.231c0 3.033-.432 6.4 3.264 7.141 5.424 1.088 11.62.655 17.134.965l15.5.874c1.279.073 1.275-1.927-.007-1.999Z" style="fill:#231f20"/><path d="M138.8 158.842c-.311-.021-.622-.05-.935-.074 0 .934.018 1.87 0 2.8-.021 1.38-1.666 1.283-1.645-.1.015-.944-.008-1.889 0-2.835-1.218-.1-2.437-.181-3.659-.174-.665 0-.976-.991-.713-1.659l4.182-10.635c.474-1.2 1.891-.025 1.419 1.176q-1.77 4.511-3.546 9.028c.771.032 1.543.057 2.315.12 0-1.056.015-2.11 0-3.169-.025-1.384 1.619-1.275 1.644.1.02 1.068 0 2.132 0 3.2.313.025.626.054.938.075 1.062.081 1.061 2.223 0 2.147ZM145.506 146.153c.021 0 .038.008.057.008s.046-.037.077-.047c3.682-1.1 4.105 5.068 4.118 8.326.013 2.9.107 7.4-2.385 8.478-1.948.842-4.237.019-5.147-2.614-1.497-4.331-1.105-13.631 3.28-14.151Zm-1 14.6c5.171 3.925 4.481-13.411 1.573-12.543h-.043c-.033.009-.055.033-.091.037-2.325.279-2.618 3.3-2.663 5.884-.036 1.84-.275 5.479 1.218 6.617ZM158.527 160.038c-.307-.02-.614-.049-.921-.073 0 .927.018 1.856 0 2.783-.021 1.369-1.64 1.273-1.619-.1.014-.937-.008-1.875 0-2.813-1.2-.1-2.4-.178-3.6-.171-.655 0-.96-.982-.7-1.646l4.116-10.552c.467-1.195 1.862-.026 1.4 1.165q-1.743 4.478-3.491 8.959c.759.031 1.519.056 2.278.118 0-1.047.016-2.093 0-3.143-.025-1.374 1.593-1.267 1.618.1.02 1.06 0 2.116 0 3.173.308.024.616.052.924.073 1.036.077 1.035 2.202-.005 2.127ZM147.109 179.707c0 1.086-.672 1.932-1.5 1.889a1.9 1.9 0 0 1-1.5-2.047c0-1.087.674-1.933 1.5-1.889a1.9 1.9 0 0 1 1.5 2.047Z" style="fill:#565656"/><path d="M146.109 179.707c-.012.276-.1.923-.5.889-.373-.031-.5-.787-.5-1.047 0-.275.107-.924.5-.889.381.034.492.786.5 1.047.056 1.282 2.057 1.289 2 0-.062-1.405-.907-3.014-2.5-3.047a2.7 2.7 0 0 0-2.5 2.889 2.9 2.9 0 0 0 2.417 3.036c1.63.093 2.526-1.428 2.59-2.878.05-1.287-1.95-1.284-2.007 0Z" style="fill:#231f20"/><g style="opacity:.15"><path d="m67.845 116.026 151.66 10.765" style="fill:#917963"/><path d="m67.845 117.526 133.127 9.45 18.533 1.315c1.927.137 1.918-2.864 0-3l-133.127-9.449-18.533-1.316c-1.927-.136-1.918 2.864 0 3Z" style="fill:#231f20"/></g><path d="m67.845 192.886 151.66 7.006" style="fill:#917963"/><path d="m67.845 194.386 132.978 6.143 18.682.863c1.93.089 1.926-2.911 0-3l-132.978-6.143-18.682-.863c-1.93-.089-1.926 2.911 0 3Z" style="fill:#231f20"/><g style="opacity:.15"><path d="m67.845 195.651 151.66 6.843" style="fill:#917963"/><path d="m67.845 197.151 132.978 6 18.682.843c1.93.087 1.926-2.913 0-3l-132.978-6-18.682-.843c-1.93-.087-1.926 2.913 0 3Z" style="fill:#231f20"/></g><path d="m67.845 272.33 151.66 2.327" style="fill:#917963"/><path d="m67.845 273.83 132.978 2.041 18.682.286a1.5 1.5 0 0 0 0-3l-132.978-2.04-18.682-.287a1.5 1.5 0 0 0 0 3Z" style="fill:#231f20"/><g style="opacity:.15"><path d="m67.845 275.095 151.66 2.164" style="fill:#917963"/><path d="m67.845 276.6 132.978 1.9 18.682.266a1.5 1.5 0 0 0 0-3l-132.978-1.9-18.682-.266a1.5 1.5 0 0 0 0 3Z" style="fill:#231f20"/></g><path d="m67.845 351.261 151.93-3.607" style="fill:#917963"/><path d="M67.845 352.761 201.06 349.6l18.715-.444c1.928-.046 1.935-3.046 0-3L86.56 349.317l-18.715.444c-1.928.046-1.935 3.046 0 3Z" style="fill:#231f20"/><g style="opacity:.15"><path d="m67.845 354.026 151.93-3.77" style="fill:#917963"/><path d="m67.845 355.526 133.215-3.306 18.715-.464c1.928-.048 1.935-3.048 0-3L86.56 352.062l-18.715.464c-1.927.048-1.935 3.048 0 3Z" style="fill:#231f20"/></g><path d="m67.845 429.966 150.749-5.691" style="fill:#917963"/><path d="m67.845 431.466 132.03-4.984 18.719-.707c1.925-.072 1.934-3.073 0-3l-132.03 4.984-18.719.707c-1.925.073-1.934 3.073 0 3Z" style="fill:#231f20"/><g style="opacity:.15"><path d="m67.845 432.917 150.749-5.791" style="fill:#917963"/><path d="m67.845 434.417 132.03-5.072 18.719-.719c1.925-.074 1.934-3.075 0-3L86.564 430.7l-18.719.72c-1.925.073-1.934 3.074 0 3Z" style="fill:#231f20"/></g><path d="m211.806 259.53-14.44-.304v43.137l14.44.05V259.53z" style="fill:#87756c"/><path d="m211.806 258.53-14.44-.3a1.013 1.013 0 0 0-1 1v43.137a1.015 1.015 0 0 0 1 1l14.44.05a1.015 1.015 0 0 0 1-1V259.53a1 1 0 0 0-2 0v37.086a22.352 22.352 0 0 0 0 4.412c.078.357-.065.76 0 1.119.008.043 1.048-.161.268-.737-.989-.729-5.245-.018-6.488-.022-1.6 0-5.236-.73-6.685-.023-.953.465.582.37.465.878.065-.282-.1-.645 0-.915.452-1.23 0-3.492 0-4.8v-30a33.627 33.627 0 0 0 0-5.712c-.078-.429.079-.9 0-1.329-.012-.065-1.026.166-.267.748 1.111.853 6.061.128 7.469.158l6.238.131a1 1 0 0 0 0-1.994Z" style="fill:#231f20"/><path d="M172.809 111.738c-.286.243-.441.559-.7.817-.22.218-.528.352-.76.555-.552.483-.956 1.068-1.547 1.54a13.1 13.1 0 0 0-1.256 1.3c-.26.268-.525.539-.764.82s-.3.6-.52.877a15.34 15.34 0 0 0-.539.714 4.7 4.7 0 0 0-.315.355c-.07.141-.014.33-.084.466-.145.281-.448.375-.558.685a5.781 5.781 0 0 1-.435 1.036 20.932 20.932 0 0 0-1.559 3.33 21.5 21.5 0 0 0-.956 3.043 8.942 8.942 0 0 0-.449 1.565 4.886 4.886 0 0 1-.2 1.588 5.369 5.369 0 0 0-.089 1.543l-.058 1.93-.049 1.649c-.008.272-.014.544-.026.816-.019.418.153.741.172 1.153a10.132 10.132 0 0 0 .026 2.083 5.4 5.4 0 0 1 .06.877 8.727 8.727 0 0 0 .274 1.051c.136.582.3 1.21.387 1.808a5.178 5.178 0 0 1 .015 1 4.147 4.147 0 0 0 .121.972c.05.276 0 .545.058.827s.231.515.306.781c.112.4.118.832.228 1.24a5.565 5.565 0 0 1 .3 1.4 12.787 12.787 0 0 0 .326 1.952 11.521 11.521 0 0 0 .464 2.217 16.636 16.636 0 0 1 .427 2.189c.073.324.236.636.3.954.083.444.109.852.227 1.3.215.817.176 1.685.456 2.49.243.7.325 1.434.519 2.148.217.795.213 1.566.466 2.356.28.874.193 1.746.506 2.617a7.625 7.625 0 0 1 .378 2.043c.054.77.174 1.539.3 2.309a13.059 13.059 0 0 1 .341 2.508c-.036.885-.055 1.77-.081 2.655l-.091 3.059a5.458 5.458 0 0 1-.08 1.239c-.117.438-.112.859-.207 1.3a4.855 4.855 0 0 0-.207 1.141 6.967 6.967 0 0 1-.243 1.259 23.033 23.033 0 0 1-.6 2.345c-.124.418-.221.808-.375 1.221-.162.432-.4.834-.532 1.265a4.6 4.6 0 0 1-.355.815c-.1.187-.682.772-.653.923.288.156 1.109-.192 1.419-.307.513-.191.906-.542 1.419-.75a8.766 8.766 0 0 0 3.091-2.125 25.784 25.784 0 0 0 2.313-2.3c.325-.481.525-1.015.815-1.513a20.255 20.255 0 0 1 .935-1.957 3.942 3.942 0 0 0 .819-1.533 21.7 21.7 0 0 1 .893-2.1c.221-.623.539-1.169.791-1.779.092-.223.156-.467.257-.69a9.481 9.481 0 0 0 .421-1.551c.352-1.308.8-2.6 1.105-3.912a26.014 26.014 0 0 0 .653-3.758c.106-1.4.066-2.82.126-4.225a7.954 7.954 0 0 0-.3-1.842c-.127-.675-.216-1.349-.373-2.023-.3-1.274-.5-2.522-.714-3.807-.1-.63-.232-1.24-.328-1.867-.125-.815-.479-1.578-.627-2.374a7.283 7.283 0 0 0-.479-1.677c-.285-.656-.3-1.328-.614-1.978a21.75 21.75 0 0 1-1.3-3.835 37.8 37.8 0 0 1-1.31-5.216c-.19-1.547-.607-3.087-.674-4.628a17.894 17.894 0 0 0-.245-1.925 11.367 11.367 0 0 1-.035-2.447 28.694 28.694 0 0 1 .462-3.57 4.838 4.838 0 0 0 .07-.866 4.906 4.906 0 0 1 .385-1.478c.221-.679.486-1.35.65-2.042a5.46 5.46 0 0 1 .509-1.12c.289-.618.53-1.262.834-1.871.207-.414.7-.809.774-1.261" style="fill:#e96449"/><path d="M171.749 110.677c-4.083 4.759-7.565 7.751-9.692 13.91-2.416 6.994-1.72 14.583-.469 21.742 2.364 13.532 10.316 31.87 2.294 44.772a1.51 1.51 0 0 0 1.295 2.257c11.564-.849 16.748-20.1 16.539-29.3-.167-7.352-3.052-14.393-5.019-21.369-2.419-8.584-2.65-16.413 1.519-24.4.892-1.71-1.7-3.229-2.59-1.515-2.551 4.89-4.182 9.779-3.854 15.413.413 7.107 3.081 13.468 4.838 20.248 1.966 7.581 2.65 14.184.481 21.768-1.54 5.387-5.165 15.661-11.914 16.157l1.3 2.257c7.442-11.969 1.994-27.815-.624-40.39-1.471-7.072-2.988-14.551-2.178-21.8.893-7.994 5.407-12.04 10.2-17.626 1.251-1.459-.862-3.59-2.121-2.122ZM224.58 198.975c-3.874-.156-7.739-.451-11.611-.587-1.931-.067-1.928 2.933 0 3 3.873.136 7.737.431 11.611.587 1.93.077 1.927-2.923 0-3ZM198.174 198.407c-3.846.49-7.706.84-11.547 1.349-1.886.25-1.911 3.254 0 3 3.841-.509 7.7-.859 11.547-1.349 1.889-.241 1.913-3.244 0-3Z" style="fill:#231f20"/><path d="M213.371 255.6a4.962 4.962 0 0 1-.163-1.326 7.346 7.346 0 0 0-.26-1.267c-.313-1.411.095-2.861.089-4.265a21.679 21.679 0 0 1-.008-2.458c.043-.378.17-.7.179-1.088.007-.326-.048-.673-.013-1 .075-.686.456-1.324.518-2a18.51 18.51 0 0 0 .158-1.922 11.359 11.359 0 0 1 .292-2.123 7.577 7.577 0 0 1 .42-1.742 2.932 2.932 0 0 0 .133-.956 4 4 0 0 1 .279-.931 12.373 12.373 0 0 0 .408-1.744c.085-.383.277-.773.389-1.153.083-.284.1-.577.2-.859s.259-.522.383-.783.177-.528.316-.788a6.107 6.107 0 0 0 .422-.649c.07-.182.051-.365.1-.548a6.317 6.317 0 0 1 .486-.867 10.524 10.524 0 0 1 1-1.694c.262-.348.661-.587.891-.953.212-.338.207-.572.541-.835.524-.412 1.082-.806 1.58-1.249.515-.458.933-1 1.489-1.416s1.142-.788 1.678-1.205a19.063 19.063 0 0 0 1.74-1.63 16.629 16.629 0 0 0 1.488-1.332c.434-.561.789-1.193 1.271-1.722.358-.392.562-.859.892-1.28a6.179 6.179 0 0 0 .567-.785 4.108 4.108 0 0 1 .357-.8c.2-.248.411-.345.494-.665a4.754 4.754 0 0 1 .353-.9c.126-.269.372-.534.467-.8.087-.246.079-.532.154-.787.156-.529.383-1.037.522-1.572a14.954 14.954 0 0 0 .681-3.478 5.073 5.073 0 0 1 .18-.829 6.274 6.274 0 0 0-.013-.833 1.363 1.363 0 0 1 .05-.337 20.255 20.255 0 0 0-5.742.022c-.271.054-.448.08-.584.1-2.376-.5-4.894-1.07-6-.584a15.288 15.288 0 0 1-4.593-4.434c-1.656-3.062-.941-8.714-2.742-11.205-1.887-2.607-6-1.339-8.455-1.268-3.2.094-7.387-.847-10.442.29-.7 1.883-.3 5.695-.406 7.728-.159 3.011-1.166 6.176-3.046 8.042-1.489 1.48-4.433.612-6.412 1.364-1.645-.7-3.329-.233-5.034.139a45.531 45.531 0 0 0-4.419 1.158 24.368 24.368 0 0 0-3.794 1.312c-3.393 1.564-5.565 2.016-7.814 5.178a13.078 13.078 0 0 0-2.426 5.632c-.17 1.019-.222 4.377-.27 5.407q-.027.737-.057 1.474l.576.238a34 34 0 0 0 2.431 3.166l4.675 6.089c.806 1.051 1.8 3.076 2.918 3.8a6.523 6.523 0 0 0 2.526.494l6.32.841c1.475.2 5.134.038 6.007 1.133.96 1.2 1.153 4.224 1.555 5.7q1.53 5.605 3.056 11.211 3.591 13.189 7.163 26.382 1.3 4.818 2.593 9.639c.1.37 1.311 3.5 1.025 3.79.554-.56.751-2.164.972-2.88q1.193-3.857 2.359-7.72 3.3-10.875 6.578-21.758.608-2.016 1.214-4.033c-.033-.21-.072-.419-.1-.649a12.311 12.311 0 0 0-.342-2.227Z" style="fill:#fff"/><path d="M214.371 255.6c-1.2-9.759-.291-24.241 7.066-31.692 2.889-2.926 6.361-4.912 8.806-8.3 3.035-4.206 4.049-8.187 4.8-13.307a1.022 1.022 0 0 0-.964-1.266c-2.335-.207-4.628.07-6.926-.076a34.576 34.576 0 0 1-5.16-.367c-5.881-1.93-4.11-9.661-6.1-13.982-1.311-2.854-3.733-3.408-6.677-3.259-4.566.23-9.538-.548-13.964.643a1 1 0 0 0-.7.7c-1.547 6.355 1.662 15.017-7.749 16.129-5.165.611-9.667.9-14.664 2.916-9.109 3.68-10.95 9.446-11.3 18.655a1.031 1.031 0 0 0 .735.965c.991.408 3.3 4.113 3.577 4.466 1.293 1.663 2.595 3.327 3.826 5.035 1.432 1.986 2.069 3.383 4.4 4.159 2.606.867 6.07.8 8.8 1.081 2.231.228 3.91.082 4.993 2.423.683 1.477.806 3.883 1.219 5.468 2.29 8.791 4.778 17.534 7.157 26.3q1.8 6.639 3.593 13.279c.658 2.44 2.765 6.66 2.541 9.308a1.008 1.008 0 0 0 1.864.5c1.257-2.343 1.716-5.207 2.492-7.75q1.99-6.526 3.96-13.06c1.768-5.846 5.576-13.062 4.325-19.238-.255-1.26-2.183-.727-1.928.532.6 2.965-.461 5.369-1.315 8.2q-1.64 5.44-3.284 10.88-1.6 5.305-3.217 10.609c-.851 2.8-1.382 6.247-2.76 8.816l1.863.5c.116-1.366-.668-2.782-1.061-4.056-1.361-4.413-2.405-8.949-3.612-13.408q-3.694-13.646-7.417-27.284c-.948-3.482-1.478-7.341-2.669-10.734a3.8 3.8 0 0 0-2.5-2.8c-2.2-.858-5.2-.583-7.511-.89-2.451-.326-5.3-.455-7.189-2.3-1.405-1.372-2.476-3.5-3.679-5.067-1.345-1.752-4.307-4.437-5.026-6.491-.434-1.241-.153-4.019.069-5.651 1.407-10.323 13.837-12.594 22.3-13.137 5.2-.334 8.379-.948 10.028-6.376.858-2.824-.083-5.946.695-8.625 1.226-4.222 6.966-2.247 10.344-2.424 2.854-.15 3.4-.745 5.911 1.151 2.671 2.018 2.241 3.727 2.762 6.779a10.853 10.853 0 0 0 3.063 6.421c4.407 4.451 10.173 2.546 15.883 3.052l-.964-1.266c-.855 5.8-2.281 10.7-6.438 15.034-3.041 3.168-7.009 5.148-9.382 8.962-5.137 8.256-6.076 20.464-4.928 29.835.166 1.271 2.168 1.287 2.012.008Z" style="fill:#231f20"/><path d="M252.746 224.027c-.5-5.771-1.961-11.524-5.713-16.082a16.16 16.16 0 0 0-10.559-5.621c-.739-.095-1.553-.2-2.391-.287a1.363 1.363 0 0 0-.05.337 6.274 6.274 0 0 1 .013.833 5.073 5.073 0 0 0-.18.829 14.954 14.954 0 0 1-.681 3.478c-.139.535-.366 1.043-.522 1.572-.075.255-.067.541-.154.787-.095.268-.341.533-.467.8a4.754 4.754 0 0 0-.353.9c-.083.32-.292.417-.494.665a4.108 4.108 0 0 0-.357.8 6.179 6.179 0 0 1-.567.785c-.33.421-.534.888-.892 1.28-.482.529-.837 1.161-1.271 1.722a16.629 16.629 0 0 1-1.488 1.332 19.063 19.063 0 0 1-1.74 1.63c-.536.417-1.128.8-1.678 1.205s-.974.958-1.489 1.416c-.5.443-1.056.837-1.58 1.249-.334.263-.329.5-.541.835-.23.366-.629.6-.891.953a10.524 10.524 0 0 0-1 1.694 6.317 6.317 0 0 0-.486.867c-.054.183-.035.366-.1.548a6.107 6.107 0 0 1-.422.649c-.139.26-.192.528-.316.788s-.284.507-.383.783-.117.575-.2.859c-.112.38-.3.77-.389 1.153a12.373 12.373 0 0 1-.408 1.744 4 4 0 0 0-.279.931 2.932 2.932 0 0 1-.133.956 7.577 7.577 0 0 0-.42 1.742 11.359 11.359 0 0 0-.292 2.123 18.51 18.51 0 0 1-.158 1.922c-.062.672-.443 1.31-.518 2-.035.323.02.67.013 1-.009.385-.136.71-.179 1.088a21.679 21.679 0 0 0 .008 2.458c.006 1.4-.4 2.854-.089 4.265a7.346 7.346 0 0 1 .26 1.267 4.962 4.962 0 0 0 .163 1.326 12.311 12.311 0 0 1 .347 2.237c.027.23.066.439.1.649l3.911-12.993c.363-1.207.573-3.307 1.307-4.349.586-.831.752-.633 2.075-.76l9.583-.924c1.836-.176 4.679.1 6.4-.616 1.482-.62 3-2.43 4.238-3.438l7.92-6.444a20.429 20.429 0 0 0 2.885-2.347c.821-1.007.752-.923.607-2.596Z" style="fill:#f2f2f3"/><path d="M253.746 224.027c-1.264-12.308-6.746-21.513-19.663-22.99a1 1 0 0 0-.964.734c-.924 6.261-2.566 11.24-7.206 15.681-3.532 3.38-7.277 5.575-9.559 10.051-4.746 9.315-5.032 21.187-3.5 31.251.157 1.033 1.667.867 1.928 0q1.4-4.64 2.795-9.28c.935-3.108 1.131-7.047 4.492-8.181 4.756-1.6 10.625.381 15.287-1.483 3.6-1.437 6.984-5.59 9.959-7.991 2.669-2.155 6.722-3.925 6.432-7.792-.1-1.276-2.1-1.286-2 0 .169 2.253-4.286 5.109-5.846 6.378-2.095 1.7-4.138 3.5-6.257 5.171-4.721 3.719-11.738 3.179-17.575 3.717-2.384.22-3.449.2-4.46 2.537-2.18 5.032-3.167 11.121-4.755 16.393h1.928a59.791 59.791 0 0 1 1.039-22.96c1.565-6.683 4.656-10.45 9.767-14.767a25.974 25.974 0 0 0 9.008-14.445c.6-2.746-.367-2.43 1.926-2.688 2.9-.327 6.849 2.277 8.756 4.143 4.378 4.282 5.866 10.653 6.469 16.521.129 1.273 2.13 1.281 1.999 0Z" style="fill:#231f20"/><path d="m166.453 336.78.035 2.891.032 2.897.028 2.892.02 2.885-.028 2.88-.46 1.134-.473 1.119-.518 1.097-.594 1.06-.675 1.013-.52 1.224-.29 1.306-.132 1.335.086 1.337.579 1.174 1.208.483.794-1.006.28-1.31.196-1.333.358-1.279-.295 2.054-.033 2.077.234 2.066.563 1.998 1.007 1.809.645.599.698-.325.24-.849.103-.879.049-.882.017-.361.019-.366.021-.366.02-.371.019-.374-.036-.708-.027-.708-.021-.705-.017-.709-.022-.698.098.7.05.706.014.707-.011.707-.028.708.117 1.564.195 1.561.323 1.532.589 1.446 1.263.768.643-.317.389-.613.221-.699.129-.723.073-.731-.072-.778-.027-.783.002-.785.016-.786.012-.777-.006-.232-.011-.232-.012-.232-.013-.231-.012-.232-.02-.308-.02-.305-.016-.302-.012-.302-.001-.298.02.304.015.304.012.303.011.302.011.302.068 1.01.056 1.013.036 1.015.004 1.016-.041 1.014.054.344.073.336.101.328.142.309.205.269.889.311.699-.668.409-.903.285-.954.204-.963.29-2.154.17-2.17.098-2.175.063-2.174.067-2.174.106-3.796.101-3.799.1-3.798.099-3.799.098-3.8-2.286.002-2.285.003-2.286.003-2.286.002-2.285.003z" style="fill:#fff"/><path d="M165.453 336.78c.06 4.955 1.3 11.764-.771 16.307-1.529 3.357-5.449 9.286-.2 11.385a.96.96 0 0 0 .973-.258c1.323-1.679 1.319-3.346 1.885-5.37l-1.928-.531c-.556 3.868-.745 8.675 2.377 11.576a1.044 1.044 0 0 0 1.212.156c2.541-1.181 1.635-6.782 1.559-9.164l-1.964.266c.314 2.228-.341 12.974 4.4 10.838 2.87-1.293 1.446-7.867 1.437-10.371h-2c.195 2.966-1.085 8.23 2.39 9.444a1 1 0 0 0 .973-.257c3.354-3.207 2.448-10.639 2.573-14.872.188-6.387.344-12.775.509-19.162a1.013 1.013 0 0 0-1-1l-11.428.013a1 1 0 0 0 0 2l6.857-.008a21.322 21.322 0 0 0 3.428 0c1.405-.245.111-1.137.117-.016.005.844-.043 1.69-.065 2.534-.133 5.111-.259 10.222-.409 15.332-.1 3.257.84 10.548-1.448 13.143-.231.262.095.594-.188-.068a5.164 5.164 0 0 1-.077-1.764c-.113-1.767-.116-3.546-.232-5.315a1 1 0 0 0-2 0c.007 1.825 1.146 7.33-.289 8.538-.035.029.4.5-.405-.3a4.276 4.276 0 0 1-.457-1.047 12.269 12.269 0 0 1-.512-3.234c-.13-1.658-.013-3.3-.246-4.951-.158-1.122-2-.846-1.964.265.064 2.017-.05 4.021-.01 6.028a3.216 3.216 0 0 1-.2 1.257c.136-.213.858.256.369-.181a6.57 6.57 0 0 1-1.385-3.163 15.961 15.961 0 0 1 0-5.978c.178-1.236-1.571-1.808-1.928-.531-.452 1.614-1.432 6.089-1.5 1.854-.047-2.8 2.272-4.99 3.132-7.543 1.562-4.636.468-10.946.409-15.844a1 1 0 0 0-1.994-.008Z" style="fill:#221f1f"/><path d="M165.087 208.194c-2.25 2.833-3.056 9.678-3.056 9.678-.806 19.893-.668 116.586-.622 139.452h17.6v-33.065c0-.451.112-30.465.165-30.891a4.2 4.2 0 0 0-.13-1.3 8.286 8.286 0 0 1-.035-1.41v-2.12c0-.979-.157-1.872-.157-2.853 0-.686-.006-1.373 0-2.059a5.132 5.132 0 0 0-.165-1.035 9.2 9.2 0 0 1 .008-1.379v-19.09a24.363 24.363 0 0 1 .123-4.831 12.3 12.3 0 0 0 .035-2.414 10.216 10.216 0 0 1 .279-2.232 6.613 6.613 0 0 0 .036-1.387 7.3 7.3 0 0 1 .164-1.242 18.642 18.642 0 0 0-.008-2.556c0-1.55-.007-3.1 0-4.65 0-.771-.156-1.467-.157-2.242" style="fill:#f2f2f3"/><path d="M163.792 207.437c-4.036 6.029-3.406 14.089-3.518 21.013-.161 9.9-.222 19.806-.275 29.709q-.19 36.033-.125 72.067.009 13.548.035 27.1a1.523 1.523 0 0 0 1.5 1.5h17.6a1.522 1.522 0 0 0 1.5-1.5c0-14.863-.02-29.725.044-44.587.037-8.549.153-17.085-.123-25.622-.269-8.328-.171-16.655-.236-24.993-.056-7.214.99-14.315.472-21.554-.137-1.914-3.138-1.929-3 0 .517 7.228-.528 14.344-.472 21.554.065 8.339-.033 16.666.236 24.993.276 8.537.16 17.073.123 25.622-.064 14.862-.042 29.724-.044 44.587l1.5-1.5h-17.6l1.5 1.5c-.082-41.076-.22-82.161.285-123.234.095-7.7-1.314-18.412 3.189-25.139 1.076-1.609-1.521-3.113-2.591-1.514Z" style="fill:#231f20"/><path d="m200.396 385.446-4.743-.317-4.742-.321-4.742-.323-4.742-.326-4.742-.327.777 11.283.876 11.276.931 11.271.946 11.27.917 11.272.423 5.383.416 5.384.399 5.385.374 5.387.339 5.388.152 2.658.14 2.659.127 2.659.114 2.66.099 2.66.044 1.368.041 1.367.036 1.368.031 1.369.026 1.368.051 1.072.053 1.072-.039 1.073-.238 1.044-.524.931-.932.932-1.072.772-1.136.671-1.165.624-1.166.621-1.882 1.107-1.8 1.229-1.707 1.355-1.596 1.483-1.461 1.615-.107.133-.097.141-.08.151-.045.163.009.169.253.331.386.173.418.081.427.021.425-.032.459-.084.45-.12.438-.157.421-.195.399-.237-.546.362-.505.413-.458.468-.393.521-.314.571.915.09.918-.026.909-.14.882-.257.832-.388-.284.331-.266.344-.247.36-.225.372-.201.384-.065.151-.045.159-.01.164.047.156.105.125.109.072.118.05.126.038.13.027.132.022.866.056.866-.071.846-.194.804-.327.722-.478-.279.476-.268.483-.258.487-.246.493-.235.496-.035.081-.03.084-.019.085v.086l.023.083.115.138.157.09.169.06.178.043.181.03.612.059.615.013.614-.034.61-.079.601-.128.785-.247.755-.323.725-.386.699-.43.681-.457 1.073-.744 1.062-.758 1.053-.774 1.04-.786 1.029-.801 1.086-.878 1.051-.917.993-.98.898-1.066.747-1.174.645-1.669.281-1.768.006-1.793-.149-1.785-.187-1.782 2.693-20.825 1.088-20.981.474-21.01.248-21.016.312-21.011z" style="fill:#fff"/><path d="M200.4 383.946q-11.856-.792-23.711-1.614a1.508 1.508 0 0 0-1.5 1.5c1.414 20.541 3.254 41.045 4.856 61.571.714 9.146 1.4 18.3 1.854 27.46.219 4.4.349 8.807.475 13.213.071 2.471.591 4.587-1.4 6.406-1.693 1.548-4.239 2.351-6.166 3.6-1.952 1.266-8.534 5.32-7.141 8.3 1.055 2.256 4.553 1.253 6.128.319l-1.514-2.59a7.974 7.974 0 0 0-2.754 2.873 1.521 1.521 0 0 0 1.295 2.257 9.528 9.528 0 0 0 5.213-.926l-1.818-2.355c-3.935 4.578 1.084 6.919 5.346 4.1l-2.055-2.06c-1.072 1.829-2.7 4.163-.01 5.346 2.616 1.152 6.13-.726 8.212-2.091 3.444-2.257 7.736-5.016 10.017-8.546 2.43-3.761 1.232-7.656 1.53-11.791.465-6.433 1.886-12.8 2.487-19.224.532-5.692.612-11.46.908-17.17.49-9.432.612-18.9.723-28.339q.229-19.373.521-38.743a1.5 1.5 0 0 0-3 0c-.3 20.155-.521 40.308-.976 60.46-.186 8.277-.4 16.7-1.323 24.925-.673 6.025-1.9 12.045-2.34 18.091-.282 3.906 1.027 7.741-1.745 11.067a31.644 31.644 0 0 1-10.421 7.953c-.812.35-3.132.173-3.617.557-.355.282.874 1.138.339 1.454.186-.11.185-.6.357-.742a7.385 7.385 0 0 0 .928-1.693c.732-1.248-.771-2.9-2.052-2.052-.81.537-2.83.667-3.095.877.145-.115-.021 1.431.5 1.033.121-.093.133-.385.269-.471.2-.124.449-.626.619-.824a1.507 1.507 0 0 0-1.818-2.356 6.669 6.669 0 0 1-3.7.516l1.3 2.257a4.776 4.776 0 0 1 1.677-1.8c1.6-1.058.163-3.584-1.514-2.59-.543.322-1.645.314-2.049.61-.2.147 1.023.91.11 1.208.578-.189 1.717-1.85 2.26-2.357 3.2-2.986 7.554-4.238 10.726-7.12 2.968-2.7 2.093-6.653 2-10.276-.106-4.2-.28-8.4-.5-12.6-.938-18.14-2.589-36.245-4.095-54.344q-1.389-16.692-2.549-33.4l-1.5 1.5q11.854.817 23.711 1.614c1.925.135 1.917-2.865.002-2.993Z" style="fill:#231f20"/><path d="m234.641 421.052-.254-6.693-.263-6.692-.247-6.694-.209-6.694-.145-6.696-4.611-.291-4.611-.295-4.611-.298-4.611-.3-4.611-.3.236 3.901.217 3.908.216 3.913.218 3.912.236 3.91.352 4.02.379 4.018.398 4.016.414 4.014.421 4.013.906 8.682.863 8.686.783 8.693.664 8.704.506 8.713.188 3.83.167 3.833.103 3.835-.007 3.835-.163 3.832.115 1.091.136 1.092.139 1.097.139 1.098.123 1.097-.076.364-.106.356-.141.344-.178.326-.215.303-.932.932-1.072.772-1.136.671-1.165.624-1.166.621-1.882 1.107-1.8 1.229-1.708 1.355-1.595 1.483-1.461 1.615-.107.134-.097.14-.08.151-.045.163.009.169.253.331.386.173.418.081.427.021.425-.032.459-.084.449-.12.439-.157.421-.195.399-.237-.546.362-.505.413-.458.468-.393.521-.314.571.915.09.918-.026.909-.14.882-.257.832-.388-.284.331-.266.344-.247.36-.225.372-.201.384-.065.151-.045.159-.01.164.047.156.105.125.109.072.118.05.126.038.13.027.132.022.866.056.866-.071.846-.194.804-.327.722-.478-.279.476-.268.483-.258.487-.246.493-.235.496-.035.081-.03.084-.019.085v.086l.023.083.115.138.157.091.169.059.178.043.181.03.612.059.615.013.614-.034.61-.079.601-.128.785-.247.755-.323.725-.386.699-.43.681-.457 1.073-.744 1.062-.758 1.053-.774 1.04-.786 1.029-.801 1.085-.878 1.052-.917.993-.98.898-1.066.747-1.174.584-1.524.273-1.611.084-1.634.038-1.633.129-1.628.557-3.692.625-3.68.631-3.679.574-3.687.454-3.704.463-4.968.398-4.975.327-4.979.254-4.984.177-4.987.013-.501.013-.501.011-.501.011-.501.01-.501.071-5.448.003-5.449-.059-5.449-.118-5.448-.172-5.446z" style="fill:#fff"/><path d="M236.141 421.052c-.424-11.156-.876-22.308-1.118-33.469a1.534 1.534 0 0 0-1.5-1.5q-11.523-.727-23.055-1.483a1.508 1.508 0 0 0-1.5 1.5c1.191 19.646 3.224 39.121 5.011 58.716.943 10.335 1.709 20.684 2.109 31.056.188 4.862-.353 9.867.228 14.679.153 1.266.672 2.818.1 3.925-.964 1.881-4.354 2.9-6.089 3.938-2.279 1.362-8.824 5.1-8.568 8.288.25 3.1 4.645 2.077 6.333 1.076l-1.514-2.59a7.974 7.974 0 0 0-2.754 2.873 1.521 1.521 0 0 0 1.295 2.257 9.528 9.528 0 0 0 5.213-.926l-1.818-2.355c-3.935 4.578 1.084 6.919 5.346 4.1l-2.052-2.052c-.886 1.512-2.495 3.612-.694 5.045 1.563 1.242 4.838.329 6.413-.355 5.737-2.492 13.471-8.323 14.126-14.955 1.643-16.642 4.385-32.964 4.743-49.771.2-9.334.034-18.663-.26-27.992-.06-1.926-3.061-1.935-3 0 .444 14.075.546 28.147-.378 42.2a223.876 223.876 0 0 1-2.629 23.1 103.138 103.138 0 0 0-1.4 11.032c-.231 3.71-1.678 5.742-4.473 8.073-2.524 2.106-5.868 5.265-9.194 6a9.56 9.56 0 0 0-1.583.148c-.143.081-.5-.125-.614-.036a.532.532 0 0 1-.177-.027q-.807-.229.513 1.281c-.039.011.856-1.653 1.2-2.241.732-1.248-.771-2.9-2.052-2.052-.81.537-2.83.667-3.095.877.145-.115-.021 1.431.5 1.033.12-.093.133-.385.269-.471.2-.124.448-.626.619-.824a1.507 1.507 0 0 0-1.818-2.356 6.669 6.669 0 0 1-3.7.516l1.3 2.257a4.784 4.784 0 0 1 1.677-1.8c1.6-1.057.163-3.584-1.514-2.59-.554.328-1.637.308-2.049.61 0 0-.253 1.15.339.955.572-.187 2.1-2.19 2.579-2.614 3.256-2.862 8.469-4.141 11.11-7.542 1.937-2.5.625-5.345.5-8.229-.208-4.875.15-9.8-.073-14.7-.849-18.692-2.876-37.256-4.76-55.863-1.069-10.557-1.622-21.121-2.264-31.709l-1.5 1.5q11.528.752 23.055 1.484l-1.5-1.5c.242 11.161.694 22.313 1.118 33.469.072 1.938 3.073 1.948 2.999.014Z" style="fill:#231f20"/><path d="M173.105 230.718c-1.929 8.7-.613 14.167.149 20.375s1.05 11.884 1.383 18.717c.359 7.36 2.84 21.149 2.84 29.424 0 .05-6.944 33.154-6.873 67.161.046 21.624-.712 43.235-.9 64.855-.054 6.372-.427 13.08.635 19.383.795 4.716 6.92 6.315 11 5.5a11.45 11.45 0 0 0 6.568-3.983 2.158 2.158 0 0 0-.3 2.461 2.312 2.312 0 0 0 .949.675c3.343 1.5 7.2.449 10.817-.146a40.876 40.876 0 0 1 13.556.056 72.472 72.472 0 0 1 7.093 1.695 13.244 13.244 0 0 0 3.475-.254 12.448 12.448 0 0 0 4.787-2.734 13.433 13.433 0 0 0 2.458 5.543q2.794.466 5.621.709c3.425.291 7.126-.339 7.667-4.354a22.086 22.086 0 0 0 .163-3.56c-.094-3.383-.752-6.834-.858-10.164-.161-5.078-.161-10.16-.271-15.239q-.323-14.9-.449-29.8c-.111-12.27-.145-24.542-.02-36.812.486-47.616-5.572-92.487-5.436-96.365.5-14.116 2.792-16.441 3.686-30.536" style="fill:#f2f2f3"/><path d="M171.659 230.319c-1.664 8.276-.366 15.855.467 24.117.828 8.219.934 16.469 1.937 24.674.785 6.423 2.482 13.571 1.9 20.046-.361 4.031-1.515 8.128-2.153 12.129-6.2 38.936-5.165 78.681-5.588 118-.061 5.656-.349 11.35.1 16.995.269 3.388.454 6.818 3.254 9.117 5.335 4.381 13.048 2.458 17.393-2.186l-2.355-1.818c-3.691 8.524 10.663 5.485 14.651 5.015a40.462 40.462 0 0 1 8.292-.151c3.47.306 6.67 1.678 10.069 2.08 3.817.453 6.82-1.092 9.722-3.374l-2.507-.662c.514 2.064 1.406 5.582 3.5 6.592 2.611 1.255 8.078 1.319 10.847.334 6.684-2.376 4.268-11.334 3.816-16.632-.893-10.46-.538-21.165-.7-31.662q-.255-16.663-.289-33.329c-.034-21 .15-41.937-1.045-62.92-.849-14.89-2.171-29.74-3.627-44.581-1.3-13.23 2.074-25.636 3-38.775.135-1.926-2.865-1.918-3 0-.771 10.953-4.416 22.016-3.54 33.045.815 10.261 2 20.492 2.823 30.756 2.9 36.277 2.13 72.5 2.583 108.851q.2 16.144.529 32.288c.094 4.621 1.132 9.376.953 13.973-.167 4.256-1.522 6.446-5.757 6.444a14.077 14.077 0 0 1-2.453-.215c-3.627-.671-3.974-1.844-4.753-4.966a1.521 1.521 0 0 0-2.507-.662c-5.774 4.541-13.477.449-20.219.281a43.311 43.311 0 0 0-7.187.45c-1.206.172-11.786 2.037-10.616-.666.624-1.443-1.091-3.17-2.356-1.818-3.024 3.232-8.385 5.236-12.517 2.571-4.284-2.764-3.257-10.833-3.229-15.361.056-9.228.233-18.458.407-27.684.363-19.168.013-38.427.9-57.573a369.52 369.52 0 0 1 5-45.211c.461-2.695 1.225-5.442 1.507-8.16.594-5.721-.792-12.017-1.5-17.689-1.005-8.08-1.339-16.138-2-24.247-.731-9.019-2.687-17.584-.87-26.618.379-1.886-2.512-2.692-2.893-.8Z" style="fill:#231f20"/><path d="M189.6 453.28c1.855-6.5 1.914-13.15 1.831-19.863a1.5 1.5 0 0 0-3 0c.079 6.443.058 12.819-1.724 19.066a1.5 1.5 0 0 0 2.893.8ZM234.366 458.632c-5.163-.974-4.339-5.312-3.862-9.43a36.7 36.7 0 0 0-.143-9.033c-.246-1.888-3.249-1.912-3 0a37.149 37.149 0 0 1 .025 9.9c-.257 1.886-.7 3.736-.24 5.635a7.9 7.9 0 0 0 6.422 5.823c1.887.356 2.7-2.534.8-2.893Z" style="fill:#231f20"/><path d="m240.286 342.863.035 2.891.032 2.897.029 2.892.02 2.885-.028 2.88-.461 1.134-.472 1.12-.519 1.096-.594 1.06-.675 1.013-.52 1.224-.29 1.306-.131 1.335.085 1.337.579 1.175 1.209.482.793-1.006.28-1.31.197-1.333.357-1.279-.295 2.054-.033 2.078.235 2.065.562 1.998 1.008 1.809.644.599.698-.325.241-.849.102-.879.05-.882.016-.361.02-.366.02-.366.02-.37.019-.375-.036-.708-.027-.708-.02-.705-.018-.709-.022-.697.099.699.049.706.014.707-.011.707-.028.708.118 1.564.195 1.561.322 1.533.589 1.445 1.263.768.644-.317.388-.613.221-.699.129-.722.073-.732-.072-.778-.027-.783.002-.785.016-.786.012-.777-.006-.232-.01-.232-.013-.232-.013-.231-.011-.231-.021-.309-.019-.305-.017-.302-.012-.301-.001-.299.02.304.015.304.012.303.011.302.012.303.067 1.009.056 1.014.036 1.014.005 1.016-.042 1.014.054.344.074.336.101.328.141.309.205.269.889.311.699-.668.409-.903.285-.954.205-.963.289-2.154.17-2.17.098-2.174.063-2.175.067-2.174.107-3.796.101-3.799.099-3.798.099-3.799.098-3.8-2.285.002-2.286.003-2.286.003-2.285.002-2.286.003z" style="fill:#fff"/><path d="M239.286 342.863c.06 4.955 1.3 11.764-.771 16.307-1.529 3.357-5.449 9.286-.2 11.385a.963.963 0 0 0 .973-.257c1.323-1.679 1.319-3.347 1.885-5.37l-1.929-.532c-.556 3.868-.745 8.675 2.378 11.576a1.043 1.043 0 0 0 1.212.156c2.541-1.181 1.634-6.782 1.558-9.163l-1.964.265c.314 2.228-.341 12.974 4.4 10.838 2.869-1.293 1.445-7.867 1.436-10.371h-2c.195 2.966-1.085 8.23 2.39 9.445a1 1 0 0 0 .973-.258c3.354-3.207 2.448-10.639 2.573-14.872.188-6.387.344-12.775.509-19.162a1.012 1.012 0 0 0-1-1l-11.428.013a1 1 0 0 0 0 2l6.857-.008a21.321 21.321 0 0 0 3.428 0c1.405-.245.111-1.137.118-.016 0 .844-.044 1.69-.066 2.534-.132 5.111-.259 10.222-.409 15.332-.1 3.257.84 10.548-1.448 13.143-.231.262.095.6-.188-.068a5.164 5.164 0 0 1-.076-1.764c-.113-1.767-.117-3.546-.233-5.315a1 1 0 0 0-2 0c.007 1.825 1.146 7.33-.289 8.538-.035.03.4.5-.405-.3a4.259 4.259 0 0 1-.457-1.047 12.31 12.31 0 0 1-.512-3.234c-.13-1.658-.012-3.3-.246-4.951-.158-1.121-2-.846-1.964.266.065 2.016-.05 4.02-.009 6.027a3.243 3.243 0 0 1-.2 1.258c.136-.214.859.255.369-.181a6.587 6.587 0 0 1-1.385-3.164 15.956 15.956 0 0 1 .006-5.977c.177-1.237-1.572-1.809-1.929-.532-.451 1.614-1.431 6.089-1.5 1.854-.047-2.8 2.271-4.99 3.131-7.542 1.562-4.637.468-10.947.409-15.845a1 1 0 0 0-1.997-.008Z" style="fill:#221f1f"/><path d="M235.872 236.742c0 11.042 1.323 22.765.051 32.988-1.063 8.542-.547 73.784-.219 91.5h18.271c.481-18.654.92-85.889.92-95.677 0-9.523-.021-19.1 0-28.606.01-4.757-1.123-9.879-2.2-14.468-1-4.241-2.4-11.915-5.67-15.167" style="fill:#f2f2f3"/><path d="M234.372 236.742c.058 9.247.955 18.515.489 27.762-.17 3.375-.611 6.719-.739 10.1-.339 8.938-.315 17.9-.332 26.838-.036 19.928.053 39.864.414 59.789a1.524 1.524 0 0 0 1.5 1.5h18.271a1.526 1.526 0 0 0 1.5-1.5c.928-36.959.928-73.969.912-110.939 0-9.012.14-17.631-1.841-26.467-1.341-5.981-2.293-12.81-6.46-17.573-1.273-1.456-3.388.673-2.121 2.122 4.034 4.61 4.851 12.207 6.083 18.032 1.8 8.508 1.335 17.149 1.34 25.8 0 8.09.007 16.18-.037 24.27q-.161 29.311-.475 58.622c-.1 8.713-.182 17.427-.4 26.138l1.5-1.5H235.7l1.5 1.5c-.361-19.925-.45-39.861-.414-59.789.017-8.942-.007-17.9.332-26.838.128-3.38.569-6.722.739-10.1.466-9.247-.431-18.515-.489-27.762a1.5 1.5 0 0 0-3 0Z" style="fill:#231f20"/><path d="M229.034 124.683c5.709-35.24 27.226-29.173 38.828-23.442 16.635 8.217 24.583 24.587 18.914 43.852-2.6 8.83-7.67 16.481-10.885 25.054s3.175 23.166 8.27 30.507c-11.536-4.445-28.124-21.523-26.738-35.093a78.531 78.531 0 0 1 2.937-14.929c1.483-4.927.244-10.275-.969-15.294s-4.558-12.943-11.621-13.845c-5.259-.672-10.852 4.671-11.93 10.475" style="fill:#e86348"/><path d="M230.48 125.082c1.647-9.551 4.868-21.933 15.068-25.682 6.381-2.345 13.519-.475 19.5 2.17 10.424 4.61 19 13.1 21.351 24.537 3.055 14.89-4.993 27.208-10.6 40.286-5.078 11.857.23 24.875 7.062 35.018l1.694-2.2c-9.461-3.885-18.08-12.415-22.735-21.443-2.906-5.636-3.29-10.708-2.289-16.876.976-6.019 3.467-11.693 2.838-17.87-.78-7.663-3.191-18.142-10.813-21.906-7.858-3.882-15.343 3.037-17.167 10.456-.461 1.875 2.431 2.675 2.893.8 1.537-6.253 7.773-12.094 14.16-7.8 3.664 2.46 5.435 7.073 6.5 11.175a37.613 37.613 0 0 1 1.593 9.855c-.06 3.3-1.195 6.37-1.927 9.554-.974 4.234-1.987 8.921-1.714 13.289.9 14.436 15.152 28.445 27.866 33.666 1.21.5 2.386-1.176 1.694-2.2a53.473 53.473 0 0 1-8.4-19.363c-1.717-8.877 2.848-15.848 6.544-23.595 5.7-11.947 9.07-25.189 3.7-37.911-6.04-14.321-26.8-28.473-42.918-22.391-11.1 4.187-14.979 17.076-16.8 27.647-.325 1.889 2.565 2.7 2.893.8Z" style="fill:#231f20"/><path d="M231.343 111.687a20.513 20.513 0 0 1 7.7-17.4 27.155 27.155 0 0 1 20.886-5.435 28.83 28.83 0 0 1 13.081 5.794 23.041 23.041 0 0 1 6.607 7.773c1.453 2.951 3.317 5.126 4.38 8.193s3.451 7.525 6.568 9.336a25.533 25.533 0 0 1-13.439-6.739c-2.946-3.083-5.239-6.594-8.345-9.563s-7.331-5.442-12.022-5.472a19.717 19.717 0 0 0-4.266.512 16.657 16.657 0 0 0-6.874 2.863c-2.712 2.16-3.775 5.373-4.723 8.418l-3.018 9.694" style="fill:#e56b57"/><path d="M232.343 111.687c-.824-18.825 21.5-26.971 36.236-18.78 6.347 3.527 10 9.1 13.273 15.375 2.426 4.647 3.658 9.391 8.213 12.527l.77-1.828c-9.029-1.531-13.455-7.361-19.143-13.732-3.522-3.945-7.954-7.386-13.383-7.981-4.811-.526-11.043.961-14.459 4.557-4.156 4.376-5.215 12.05-6.932 17.567-.384 1.232 1.546 1.759 1.928.532 1.711-5.5 2.839-13.724 7.448-17.51 6.028-4.951 15.036-3.767 20.708.968 3.988 3.329 6.524 8.018 10.387 11.454a26.3 26.3 0 0 0 12.914 6.073 1 1 0 0 0 .771-1.827c-3.807-2.622-4.937-6.5-6.8-10.445a54.492 54.492 0 0 0-6.2-10.445 29.373 29.373 0 0 0-18.139-10.343c-14.756-2.243-30.282 8.035-29.59 23.838.056 1.282 2.056 1.289 2 0Z" style="fill:#231f20"/><path d="M233.109 129.142a14.15 14.15 0 0 1 8.75-12.219c4.38-1.583 9.069-.57 13.426 1.119 3.784 1.468 7.62 3.594 10.1 7.6 3.536 5.708 3.515 13.921 2.152 21.042s-3.875 13.847-4.8 21.085.127 15.6 4.59 20.071c-5.01-2.166-8.755-7.978-10.55-14.453s-1.854-13.564-1.283-20.41c.468-5.61 1.344-11.261.739-16.848-.3-2.8-1.158-5.817-3.1-7.082-1.877-1.224-4.146-.412-6.059.712a29.889 29.889 0 0 0-10.74 11.455" style="fill:#d8543e"/><path d="M234.109 129.142c1.568-12.956 14.842-14 24.421-8.5s9.823 16.981 7.863 26.666c-2.592 12.809-10.082 29.765.226 41.243l1.212-1.571c-8.857-4.4-11.3-15.58-11.622-24.594-.312-8.791 2.065-17.633 1-26.386-.5-4.114-2.253-9.266-7.362-8.438-6.266 1.017-11.467 8.15-14.38 13.151a1 1 0 0 0 1.726 1.009 32.6 32.6 0 0 1 6.9-8.609c2.132-1.813 6.873-5.549 9.77-1.782 1.147 1.49 1.416 5 1.513 6.667.437 7.511-1.247 14.99-1.208 22.506.054 10.221 2.552 23.186 12.648 28.2a1 1 0 0 0 1.212-1.57c-8.547-9.518-3.417-24.14-.725-34.9 2.108-8.426 3.782-18.477-.706-26.462-3.877-6.9-13.657-11.263-21.41-10.575-7.48.664-12.225 6.862-13.083 13.949-.155 1.275 1.847 1.263 2 0Z" style="fill:#231f20"/><path d="M229.912 124.008c3.377-24.246 27.8-27.529 34.661-23.586 9.839 5.654 17.175 20.007 13.822 33.261-1.538 6.076-4.537 11.34-6.438 17.238s1.878 15.939 4.891 20.99c-6.823-3.058-16.634-14.808-15.814-24.145a61.9 61.9 0 0 1 1.737-10.272c.877-3.39.144-7.069-.573-10.522s-4.86-8.444-9.045-9c-9.217-1.219-18.577 7.052-19.215 11.045" style="fill:#dd5847"/><path d="M231.359 124.406c1.6-10.091 7.308-18.584 17.113-22.184 7.406-2.719 14.424-2.483 20.2 3.235a31.311 31.311 0 0 1 8.658 16.809c1.245 7.276-1.029 13.842-3.784 20.471-2.033 4.893-4.044 9.249-3.4 14.63a41.345 41.345 0 0 0 5.41 15.3l2.052-2.052c-7.306-3.608-14.313-12.291-15.026-20.558-.784-9.086 4.788-17.828-.233-26.628-3.6-6.308-9.975-8.317-16.737-6.143-5.092 1.637-11.678 5.774-13.117 11.334-.485 1.87 2.408 2.668 2.892.8 1.733-6.693 13.391-12.125 19.491-9.332 9.821 4.5 5.933 17.112 4.944 25.055-1.4 11.231 6.233 23.107 16.272 28.065a1.513 1.513 0 0 0 2.053-2.053c-3.6-6.283-6.649-14.267-4.2-21.428 2.339-6.83 6.09-13.153 6.681-20.488.9-11.17-5.143-25.284-15.713-30.33-6-2.864-13.986-1.206-19.737 1.441-9.494 4.37-15.1 13.107-16.712 23.26-.3 1.889 2.591 2.7 2.893.8Z" style="fill:#231f20"/><path d="M193.4 104.844c-54.447 22.768-25.478 109.632 31.447 84.488 24.607-10.87 33.679-37.9 25.027-62.535-8.142-23.185-34.183-30.238-56.884-21.679" style="fill:#fff"/><path d="M192.142 102.685c-16.559 7.119-28.016 21.723-29.934 39.77-1.677 15.778 4 32.85 15.946 43.545 13.491 12.073 31.918 12.668 47.959 5.49 23.04-10.309 33.688-35.894 27.783-59.951-3.1-12.614-10.794-23.214-22.856-28.522-12.264-5.4-26.279-4.824-38.711-.31-3 1.09-1.705 5.924 1.33 4.822 20.329-7.382 45.752-2.376 53.808 19.933 7.75 21.46.519 46.523-19.99 57.791-14.01 7.7-31.618 8.775-44.506-1.69-10.775-8.75-16.312-22.993-16.045-36.681.354-18.131 11.291-32.809 27.74-39.88 2.947-1.267.4-5.576-2.524-4.317Z" style="fill:#231f20"/><path d="M199.489 123.021c5.267 2.8 10.851 9.081 14.98 18.276 4.105 9.139 8.294 15.623 17.468 20.285a67.856 67.856 0 0 0 20.4 6.28c-2.779-10.175-7.7-19.563-12.931-28.632-4.208-7.3-8.712-14.545-14.749-20.281s-13.83-9.883-22-9.851a8.85 8.85 0 0 0-3.663.634c-2.445 1.114-3.777 3.829-4.918 6.343" style="fill:#dd5847"/><path d="M198.984 123.885c11.31 6.439 13.507 19.233 20.817 28.92 7.576 10.039 20.347 14.041 32.268 16.022a1.013 1.013 0 0 0 1.23-1.23 118.934 118.934 0 0 0-10.877-25.073c-4.267-7.663-8.731-15.44-14.724-21.91-5.31-5.733-12.145-10.509-19.93-12.019-7.243-1.4-11.449.32-14.555 6.976-.542 1.159 1.182 2.176 1.726 1.009 8.348-17.885 31.029 3.878 37.391 13.12 8.014 11.641 15.148 24.811 19.041 38.428l1.23-1.23c-13.692-2.274-26.918-7.142-34.1-19.736-5.29-9.279-8.69-19.413-18.511-25a1 1 0 0 0-1.009 1.727Z" style="fill:#231f20"/><path d="M254.775 171.147c-5.494.181-10.662-3.143-14.205-7.523s-5.736-9.744-7.876-15.021l-1.9 8.167c-2.84-2.711-4.87-6.2-6.861-9.634l-4.558-7.867c-3-5.171-6.033-10.4-10.137-14.663s-9.448-7.537-15.235-7.857a24.77 24.77 0 0 1 4.063 7.793 16.485 16.485 0 0 0-7.642-2.333c-3.483-.09-6.857 1.251-10.333 1.511s-10.177.32-11.363-3.095c-1.212-3.49 3.816-8.58 6.482-11.041 4.729-4.367 10.623-7.086 16.491-9.526a53.452 53.452 0 0 1 7.884-2.761c12.3-2.978 25.125 2.242 35.812 9.262 7.361 4.835 14.34 10.762 18.65 18.64a52.5 52.5 0 0 1 4.1 10.249 56.343 56.343 0 0 1 2.658 17.907 32.173 32.173 0 0 1-5.219 17.1" style="fill:#e96449"/><path d="M254.775 169.647c-11.676-.281-16.864-12.178-20.635-21.443-.509-1.249-2.523-1.589-2.893 0l-1.9 8.167 2.507-.662C219.2 142.655 215.51 117.434 194 115.249a1.507 1.507 0 0 0-1.295 2.257 27.724 27.724 0 0 1 3.912 7.435l2.2-1.694c-6.108-3.182-10.684-2.216-17.206-1.264-2.457.359-6.387.942-8.767-.109-5.02-2.215-.635-7.189 1.784-9.652 9.854-10.022 26.742-16.528 40.572-13.257 13.526 3.2 28.184 12.6 35.922 24.29 8.53 12.882 11.826 32.961 3.166 46.446-1.046 1.629 1.549 3.135 2.591 1.514 7.838-12.206 6.122-27.528 1.25-40.546-4.646-12.412-14.486-21.148-25.7-27.715-12.4-7.264-25.886-10.422-39.576-4.979-5.668 2.254-11.39 4.754-16.248 8.5-3.59 2.764-8.532 7-9.417 11.719-.8 4.263 2.693 6.254 6.363 6.861 8.235 1.362 15.9-3.305 23.758.787 1.08.562 2.656-.384 2.2-1.694a30.126 30.126 0 0 0-4.215-8.152l-1.3 2.257c19.851 2.017 23.969 27.447 35.73 39.581a1.512 1.512 0 0 0 2.507-.661l1.9-8.167h-2.893c4.329 10.635 10.325 23.328 23.528 23.645 1.931.047 1.93-2.953 0-3Z" style="fill:#231f20"/><path d="M185.768 117.2c2.4.082 4.533-.414 6.931.181 2.141.531 4.856 1.035 6.711 2.286 1.6 1.083 3.108-1.515 1.514-2.59-2.106-1.421-5.008-1.931-7.428-2.589-2.687-.731-5.034-.2-7.728-.288-1.931-.065-1.929 2.935 0 3ZM234.528 148.879c-.484-.953 1.257-4.907 1.624-5.893.8-2.161 1.941-4.357 2.527-6.578a1.5 1.5 0 0 0-2.893-.8c-.711 2.7-2.293 5.182-3.007 7.886-.549 2.079-1.876 4.859-.842 6.9.874 1.722 3.463.205 2.591-1.514ZM193.191 153.5a1.748 1.748 0 0 0-.163-.5c-.061-.122-.12-.343-.172-.412s-.053-.042-.1-.042c-1.484-.028-2.986-.387-4.43.023-.167.047-.185.116-.275.247a1.733 1.733 0 0 0-.093.628 1.845 1.845 0 0 0 0 .314 3.675 3.675 0 0 0 .171.784 2.364 2.364 0 0 0 .177.435c.057.077.055.049.1.047a19.714 19.714 0 0 0 4.413-.634c.163-.046.189-.111.275-.217a1.068 1.068 0 0 0 .093-.466.665.665 0 0 0 .004-.207ZM203.22 147.614a.317.317 0 0 1 .242-.2.264.264 0 0 1 .1-.011 24.2 24.2 0 0 1 2.814.463c.339.072.69.127 1.04.189a17.933 17.933 0 0 1 5.118 3.189.314.314 0 0 1-.292.128c-.64-.161-1.244-.454-1.873-.66-.92-.3-2.053-.85-2.944-1.049-.761-.169-1.532-.269-2.3-.386a4.5 4.5 0 0 1-2.062-.534.443.443 0 0 1-.119-.522ZM192.722 147.821a.317.317 0 0 0-.217-.227.243.243 0 0 0-.094-.02 22.841 22.841 0 0 0-2.765.181c-.335.038-.679.058-1.024.085a17.012 17.012 0 0 0-5.224 2.665.3.3 0 0 0 .272.155c.633-.1 1.243-.328 1.87-.47.916-.209 2.059-.643 2.94-.752.751-.093 1.506-.116 2.261-.156a4.255 4.255 0 0 0 2.043-.327.444.444 0 0 0 .159-.507ZM208.1 154.826c.059-.079.012-.063.042-.167a2.13 2.13 0 0 0 .05-.447 2.637 2.637 0 0 0 0-.289 4.331 4.331 0 0 0-.163-.788 3.258 3.258 0 0 0-.163-.468c-.057-.085-.062-.06-.118-.062-1.427-.055-2.893.07-4.317-.041-.073.067-.242.118-.3.176s-.01.052-.037.13a1.33 1.33 0 0 0-.043.338 1.438 1.438 0 0 0 0 .213 3.112 3.112 0 0 0 .149.592 3.887 3.887 0 0 0 .149.423c.05.077.058.054.116.06 1.445.134 2.864.5 4.324.567a3.632 3.632 0 0 0 .311-.237ZM195.2 165.341c2.041-.232 4.563-.791 6.59-.263.536.14 1.434.784 1.114 1.489-.218.481-1.323.656-1.827.728-1.579.224-3.723-.207-3.827-2.195-.033-.641-1.034-.645-1 0a3.425 3.425 0 0 0 3.194 3.2c1.4.2 3.561-.021 4.414-1.34.717-1.11-.11-2.177-1.16-2.639-2.178-.957-5.251-.24-7.5.016-.632.072-.639 1.073 0 1Z" style="fill:#231f20"/><path d="M220.537 220.91a45.064 45.064 0 0 1-4.234 1.681c-.32.1-.588.351-.937.448-.328.092-.661.16-.991.246a7.083 7.083 0 0 1-1.125.117c-.4.043-.722.155-1.129.17-.376.014-.709.164-1.088.175-.276.009-.554-.019-.83-.007-.339.014-.624.145-.957.179a8.788 8.788 0 0 0-.954.075 6.922 6.922 0 0 1-1.055.079 4.67 4.67 0 0 0-.691.179 9.619 9.619 0 0 1-1.671-.008c-.655 0-1.312-.009-1.968 0-.528.007-1-.175-1.528-.167a4.288 4.288 0 0 1-1-.174c-.285-.055-.585.032-.88-.029-.611-.126-1.215-.215-1.828-.333a88.252 88.252 0 0 1-3.63-.755c-.67-.159-1.3-.415-1.963-.583-.577-.145-1.047-.445-1.574-.63a16.051 16.051 0 0 1-3.3-1.5 8.539 8.539 0 0 1-1.667-1.166c-.5-.5-.989-1.011-1.5-1.5l-1 7 7.834 16.334 15.329 21.336 3.5-11.833 6.333-18.334 6.5-8Z" style="fill:#d1ecf2"/><path d="M220.033 220.047c-10.492 4.546-26.618 5.2-35.289-3.344-.482-.476-1.56-.335-1.671.441-.555 3.889-1.5 6.526.175 10.011 2.218 4.626 4.135 9.608 6.73 14.032 4.384 7.474 10.3 14.353 15.363 21.395a1.014 1.014 0 0 0 1.827-.239c1.907-6.446 3.843-12.826 6.037-19.178 1.2-3.485 2.024-7.678 3.776-10.929 0 .009 2.3-2.737 3.013-3.619l3.25-4a1.03 1.03 0 0 0 .157-1.211l-2-3c-.711-1.066-2.444-.066-1.727 1.009.553.83 1.154 1.644 1.667 2.5.479.8.531-1.168.21-.368a3.623 3.623 0 0 1-.736.906 40.039 40.039 0 0 0-4.885 6.012c-1.732 2.492-2.4 5.651-3.394 8.524a535.16 535.16 0 0 0-7.3 22.822l1.827-.239c-5.048-7.024-10.87-13.874-15.305-21.294-2.174-3.638-3.745-7.79-5.577-11.611-.538-1.121-1.028-2.293-1.624-3.385-.233-.427-.677-1.959-.536-.769-.244-2.062.681-4.766.977-6.837l-1.672.441c9.436 9.3 26.37 8.572 37.712 3.657 1.182-.511.162-2.234-1.005-1.727Z" style="fill:#231f20"/><path d="m206.7 259.41.032-3.963c-.733-4.335.045-9.9.877-14.181a39.429 39.429 0 0 1 4.073-11.119c3.722-7.053 9.021-13.162 12.656-20.233a13.948 13.948 0 0 0 .695-2.833c.356-1.33-1.744-6.952-4-6.8 0 0 14.534.467 18.7 2.133a22.006 22.006 0 0 1 6.813 4.334c.615.6.713 2.473.666 3.314a10.924 10.924 0 0 1-.83 3.433c-2.405 5.474-8.419 7.294-13.233 10.166a49.29 49.29 0 0 0-13.378 11.206c-7.1 9.02-8.541 20.09-8.541 31.114l-.7 4.433" style="fill:#e6e7e8"/><path d="M208.2 259.41c.045-5.522-.4-10.755.582-16.275 1.448-8.144 5.5-14.887 10.075-21.635 2.825-4.162 7.952-9.726 7.684-15.136-.139-2.829-2.057-6.993-5.109-7.534l-.4 2.947c5.724.193 12.2.08 17.671 1.86 1.827.594 5.128 2.055 6.3 3.725 1.763 2.5-.038 6.33-1.868 8.332-3.173 3.472-8.167 5.027-12.081 7.485-8.007 5.03-14.594 11.712-18 20.66-3.25 8.544-2.585 17.341-3.973 26.172-.3 1.889 2.593 2.7 2.893.8 1.713-10.9.7-21.826 6.691-31.711 3.639-6.008 9.233-10.617 15.235-14.145 4.177-2.457 9.117-4.167 12.188-8.117 1.932-2.484 3.5-6.581 2.279-9.733-1.132-2.918-5.219-4.968-7.883-5.988-5.93-2.27-13.181-2.126-19.457-2.338-1.655-.056-2.087 2.647-.4 2.946 3.3.585 2.862 5.724 2.141 7.667-1.124 3.031-3.274 5.811-5.068 8.478-3.339 4.962-6.8 9.839-9.149 15.371-3.656 8.6-3.285 17.1-3.359 26.171a1.5 1.5 0 0 0 3 0Z" style="fill:#231f20"/><path d="M211.862 453.78c-.018-1.186 1.669-125.533 1.676-126.7a29.47 29.47 0 0 0-.029-3.689 41.113 41.113 0 0 1-.3-3.814 13.676 13.676 0 0 0-.308-1.7 14.017 14.017 0 0 1-.028-2.091 16.239 16.239 0 0 0-.167-3.719c-.29-1.223-.049-2.46-.333-3.677a9.143 9.143 0 0 1-.163-2.1 11.313 11.313 0 0 0-.309-1.727c-.131-.852.118-1.756-.016-2.6a13.554 13.554 0 0 1-.355-1.525 31.82 31.82 0 0 0-.583-4.107c-.191-1.06.152-2.211-.057-3.251a7.353 7.353 0 0 1-.358-1.65c-.009-.52.079-1.073.025-1.59-.06-.556-.318-1.042-.364-1.6a11.884 11.884 0 0 0-.061-1.221 9.684 9.684 0 0 1-.258-2.006 7.81 7.81 0 0 0-.03-1.777 53.01 53.01 0 0 1-.61-2.955c-.183-1.082-.328-2.117-.612-3.187-.252-.951-.468-1.928-.708-2.87a22.193 22.193 0 0 0-.794-3.224c-.344-.827-.9-1.729-1.176-2.576-.095-.292-.014-.664-.13-.944-.176-.422-.431-.407-.628-.73-.3-.5-.235-1.024-.5-1.509-.521-.949-1.253-1.786-1.749-2.761-.271-.532-.409-1.12-.642-1.665a4.174 4.174 0 0 0-.933-1.241c-.75-.829-1.31-1.929-1.994-2.837a16.44 16.44 0 0 0-1.057-1.493c-.2-.21-.519-.282-.708-.486-.318-.344-.255-.535-.481-.944-.573-1.037-1.8-1.6-2.389-2.605a4.214 4.214 0 0 0-1.33-1.639 5.832 5.832 0 0 1-1.208-1.237 6.884 6.884 0 0 0-1.125-1.429 14.843 14.843 0 0 1-1.124-1.163 36.7 36.7 0 0 0-4.918-5.092 19.912 19.912 0 0 1-2.668-2.408c-.322-.369-.478-.8-.787-1.167a18.188 18.188 0 0 0-1.547-1.167c-1.719-1.617-3.439-3.186-5.145-4.833a38.269 38.269 0 0 1-4.6-4.667c-.614-.85-1.282-1.658-1.912-2.5-.618-.825-1-1.936-1.654-2.679a12.289 12.289 0 0 1-2.814-5.154 5.292 5.292 0 0 0-.362-1.487 3.172 3.172 0 0 1-.348-1.53 9.653 9.653 0 0 1 .317-1.178c.091-.521-.122-1.091.365-1.472 0 0 .827-5.017 10.966-7.9 6.8-1.933 15.3-1.666 15.3-1.666a26.483 26.483 0 0 0-4.084 1.592c-.4.331-.419.742-.714 1.15a6.649 6.649 0 0 0-.9 1.14 9.778 9.778 0 0 0-.4 1.531 11.034 11.034 0 0 0 .16 5.144c.226.856.463 1.694.718 2.537a12.367 12.367 0 0 0 .833 2.944 5.089 5.089 0 0 1 .441 1.187c.153.452.459.815.62 1.267.334.94.767 1.885 1.074 2.823a26.016 26.016 0 0 0 2.449 5.76 64.933 64.933 0 0 1 2.94 5.232 22.783 22.783 0 0 0 1.778 2.719 15.541 15.541 0 0 1 .806 1.632c.3.55.816.9 1.156 1.4.327.485.5 1.024.853 1.509a14.687 14.687 0 0 1 .934 1.343 28.385 28.385 0 0 0 1.732 3 75.29 75.29 0 0 1 4.167 6.492l3.509 5.834c.624 1.412 1.054 2.823 1.575 4.259.467 1.285 1.543 2.22 1.84 3.482.325 1.378.929 2.6 1.332 3.933a36.894 36.894 0 0 1 .66 3.993 18.735 18.735 0 0 1 .593 3.74 7.137 7.137 0 0 0 .259 1.843c.125.589.016 1.162.148 1.75.274 1.209.286 2.449.519 3.667.119.624.01 1.233.1 1.852a12.313 12.313 0 0 1 .3 2.146c-.03 2.471.335 4.784.335 7.253 0 2.66.356 5.149.334 7.822a16.285 16.285 0 0 0 .35 2.187c.06.544-.12 1.125-.035 1.665.08.508.322.89.358 1.409s-.046 1.064-.015 1.591c.078 1.341.683 2.519.674 3.92-.007 1.051.008 2.1 0 3.153-.008 1.172.349 2.15.334 3.343-.014 1.042.313 1.946.332 2.974.026 1.395 0 2.793 0 4.188 0 .427.051 119.093.012 119.517-.057.626-.968 7.628-.888 8.266" style="fill:#e6e7e8"/><path d="M213.362 453.78c-.152-30.684.8-61.411 1.214-92.092.155-11.5.36-23 .461-34.493.11-12.558-1.8-25.31-3.036-37.765-1.292-13.039-4.4-24.468-12.4-34.94a119.215 119.215 0 0 0-12.183-13.738c-6.809-6.469-14.164-12.39-19.415-20.278-3.088-4.639-4.7-9.521.175-13.254 5.9-4.518 14.774-5.057 21.954-4.876l-.4-2.947c-12.39 3.44-5.712 17.049-2.529 25.383 4.1 10.74 12.04 20.322 17.944 30.137 6.978 11.6 8.527 24.911 9.16 38.251.547 11.524 2.405 23 2.39 34.516-.038 30.6.025 61.2.027 91.8v22.154c0 4.5-.88 8.924-.9 13.4a1.5 1.5 0 0 0 3 0c.016-3.88.893-7.7.9-11.6q.011-8.3.006-16.606 0-26.877-.01-53.755l-.016-42.312a168.249 168.249 0 0 0-.848-18.71c-1.568-13.946-1.52-28.133-4.116-41.984-2.054-10.964-9.531-20.388-15.117-29.74-4.09-6.85-8.141-13.191-11.1-20.682-2.324-5.886-6.343-15.034 2.01-17.353a1.507 1.507 0 0 0-.4-2.946c-8.692-.219-23.283.653-27.465 9.927-1.648 3.657-.6 7.639 1.449 10.961 4.37 7.1 10.175 12.084 16.045 17.871 8.942 8.817 18.482 17.8 23.724 29.407 5.83 12.905 5.762 28.761 7.145 42.711 1.358 13.684.865 27.361.68 41.111l-.815 60.841c-.185 13.861-.607 27.743-.538 41.607a1.5 1.5 0 0 0 3 0Z" style="fill:#231f20"/><path d="M195.2 304.91c1.359 1.171 2.615 4.667 3 6.334a46.294 46.294 0 0 1 1.037 6.684c.08 1 .061 2.047.17 3.059.095.879-.374 2.782-.112 3.568.309.929 4.439.438 4.754-.248a6.022 6.022 0 0 0-.071-1.351c0-.63.014-1.26.014-1.89a25.78 25.78 0 0 0-.244-3.85c-.247-1.622-.636-3.184-1-4.785a66.487 66.487 0 0 0-1.701-6.431c-.277-.831-.583-2.417-1.359-2.934-.73-.487-2.244-.194-3.067-.194" style="fill:#e6e7e8"/><path d="M194.143 305.971c2.455 2.7 3.088 7.138 3.47 10.618a37.448 37.448 0 0 1 .284 5.216c-.03.946-.453 2.225-.045 3.149.985 2.227 5.421 2.192 6.98.66 1.172-1.153.681-3.024.664-4.548a41.83 41.83 0 0 0-1.293-9.034c-.634-2.749-1.019-6.785-2.719-9.167-1.227-1.717-2.909-1.61-4.863-1.5-1.919.111-1.932 3.112 0 3 4.384-.255 5.479 10.873 5.779 14.12.111 1.194.588 3.732.119 4.813q-.05.691.3.018l-1.148.217c-1.142-.276-.456.491-.918-.239-.514-.811.072-4.285-.015-5.37a47.713 47.713 0 0 0-.805-5.759c-.61-2.967-1.6-6.042-3.671-8.319-1.3-1.433-3.418.694-2.122 2.121Z" style="fill:#231f20"/><path d="M235.327 297.215c-2.048.283-4.409.913-5.68 1.043-6.873.7-13.809 1.705-20.746 1.84-10.535.207-21.05-1.558-31.516-1.828l.236 2.474-.044 2.713c3.126.387 6.347.515 9.484.783a197.171 197.171 0 0 0 20.783.643 340.012 340.012 0 0 0 19.752-.981c2.545-.2 5.285-.021 7.822-.353l-.047-3.055Z" style="fill:#e6e7e8"/><path d="M234.929 295.768c-9.489 1.594-19.165 2.934-28.816 2.837-9.6-.1-19.135-1.51-28.728-1.835a1.508 1.508 0 0 0-1.5 1.5 46.061 46.061 0 0 1 .192 5.187 1.539 1.539 0 0 0 1.5 1.5 288.814 288.814 0 0 0 57.841.092 1.531 1.531 0 0 0 1.5-1.5q-.05-3.166-.091-6.334a1.5 1.5 0 0 0-3 0q.042 3.167.091 6.334l1.5-1.5a288.814 288.814 0 0 1-57.841-.092l1.5 1.5a46.053 46.053 0 0 0-.192-5.187l-1.5 1.5c10.209.346 20.362 1.934 30.587 1.837a178.491 178.491 0 0 0 27.754-2.946c1.9-.319 1.094-3.21-.797-2.893Z" style="fill:#231f20"/><path d="M199.121 299.494c-.576-.576-1-1.138-1.844-1.112a2.964 2.964 0 0 0-2.331 1.253 10.674 10.674 0 0 0-1.118 3.525 27.535 27.535 0 0 0-.329 3.715c-.17 2.452-.632 4.887-.748 7.353-.12 2.53-.578 5.053-.266 7.592.083.677.115 1.338.134 2.019a5.116 5.116 0 0 1 .062 1.022c-.405.753-3.864.647-4.676.641s-.759.1-.987-.5a10.1 10.1 0 0 1-.143-1.721 29.3 29.3 0 0 1-.2-3.691 81.534 81.534 0 0 1 1.756-15.027c.4-2.157.34-6.02 3.014-6.612 1.194-.265 7.3-.93 7.305 1.289" style="fill:#e6e7e8"/><path d="M200.181 298.433c-3.272-3.119-6.563-.629-7.55 3.142-.9 3.447-.9 7.279-1.238 10.808-.18 1.866-.372 3.767-.437 5.637-.041 1.183.662 4.277.141 5.313-.556 1.106.374.877-1.609.673-1.03-.106-1.37-.22-1.078.153-.8-1.022-.248-5.185-.2-6.455a64.779 64.779 0 0 1 .7-7.128c.378-2.585.469-7.076 1.62-9.5.584-1.231 6.1-3.69 6.771-1.431.549 1.847 3.445 1.06 2.893-.8-1.083-3.643-8.141-3.5-10.693-1.585-2.3 1.726-2.262 5.29-2.69 7.842-.906 5.415-1.849 10.825-1.594 16.343.084 1.822-.21 4.506 1.683 5.477 1.229.63 5.225.276 6.325-.611 1.8-1.453.678-4.358.655-6.393a80.92 80.92 0 0 1 .727-9.372c.131-1.224.271-2.446.394-3.671.024-.244.587-8.678 3.061-6.321 1.4 1.332 3.522-.786 2.121-2.121Z" style="fill:#231f20"/><path d="M240.216 153.2c.665 1.584 1.2 3.195 1.895 4.766.16.364.165.722.3 1.086a9.062 9.062 0 0 1 .471 1 21.308 21.308 0 0 0 .957 2.445 44.7 44.7 0 0 0 2.312 4.572c.36.686.959 1.163 1.285 1.9a12.826 12.826 0 0 0 1.533 2.72 35.922 35.922 0 0 0 3.742 4.46c.394.348.677.747 1.1 1.052a8.152 8.152 0 0 1 1.1 1.04c.393.414.719.936 1.13 1.325.357.339.786.538 1.035 1.011-.059.186-.663.44-.853.554a2.38 2.38 0 0 1-1.065.271 5.994 5.994 0 0 1-2.268-.117 11.158 11.158 0 0 1-2.825-1.016c-1-.6-2.094-.991-3.068-1.681a30.683 30.683 0 0 1-2.324-2.192 7.465 7.465 0 0 1-1-1.052c-.371-.475-.588-.977-.93-1.462s-.786-.809-1.095-1.338c-.3-.511-.648-.955-.908-1.5a8.658 8.658 0 0 0-1.455-2.541" style="fill:#dd5847"/><path d="M238.77 153.6c2.082 5.227 3.917 10.274 6.742 15.162a59.334 59.334 0 0 0 10.5 12.879v-2.121c-3.708 2.991-10.45-4.311-12.1-6.543-1.316-1.783-2.222-3.793-3.576-5.525-1.187-1.52-3.3.616-2.121 2.121 3.415 4.371 4.992 8.882 10.315 11.591 2.986 1.52 6.7 2.82 9.6.477a1.512 1.512 0 0 0 0-2.121 56.985 56.985 0 0 1-10.03-12.276c-2.681-4.637-4.459-9.472-6.439-14.446-.706-1.772-3.609-1-2.893.8Z" style="fill:#231f20"/><path d="M225.371 133.077a9.392 9.392 0 0 0 1.264 1.084 4.768 4.768 0 0 1 .659.513c.2.233.377.5.577.731a7.5 7.5 0 0 1 .93 1.337c.152.288.393.488.533.789a3.6 3.6 0 0 0 .472.83 11.01 11.01 0 0 1 1.558 2.966 5.715 5.715 0 0 0 .474.746c.12.22.138.487.236.716.224.524.388 1.068.634 1.585a11.46 11.46 0 0 1 .5 1.544c.075.242.182.479.252.722a5.365 5.365 0 0 1 .069.776c.081.539.373 1.073.489 1.608.146.666.177 1.329.353 1.986.137.513.108 1.02.243 1.519a6.79 6.79 0 0 1 .265.923c.038.313-.055.632.006.946a6.581 6.581 0 0 1 .152 1.378c0 .492-.033 1 .015 1.49a20.01 20.01 0 0 1 .152 2.019v1.662a6 6 0 0 0 .13 1.46 9.144 9.144 0 0 1 .037 1.966 33.074 33.074 0 0 1-.32 4.119 31.436 31.436 0 0 1-.27 1.73c-.131.721-.007 1.45-.16 2.168-.118.55-.025 1.09-.121 1.646a19.825 19.825 0 0 0-.123 2.221c-.042.663-.284 1.335-.348 2s-.05 1.306-.159 1.975c-.178 1.092-.137 2.245-.374 3.321a17.027 17.027 0 0 0-.117 2.025c-.066.66-.156 1.272-.169 1.942a5.644 5.644 0 0 1-.158.983 6.138 6.138 0 0 0-.008 1.006c-.013.637-.173 1.226-.173 1.878v1.665a14.475 14.475 0 0 0 .374 3.688 28.142 28.142 0 0 0 .626 3.235c.109.282.156.57.266.847.12.305.164.572.262.877.1.331.384.592.517.916.1.249.176.5.3.745a6.6 6.6 0 0 1 .038-2.591c.138-.424.133-.811.283-1.232a14.138 14.138 0 0 1 .5-1.459c.432-.88.758-1.781 1.175-2.667s.825-1.745 1.2-2.662a28.621 28.621 0 0 0 1.125-3.448c.382-1.426.81-2.84 1.129-4.28a13.49 13.49 0 0 1 .375-1.5c.186-.528.193-1.048.334-1.6a7.633 7.633 0 0 0 .158-1.586c.031-.675.322-1.258.346-1.946.04-1.119.287-2.235.324-3.35a7.277 7.277 0 0 1 .18-.817 6.7 6.7 0 0 0-.01-.95c-.011-.661.174-1.3.168-1.961-.014-1.431 0-2.864 0-4.3a26.189 26.189 0 0 0-.037-4.021 28.694 28.694 0 0 1-.287-3.682 15.068 15.068 0 0 0-.212-1.98c-.14-.815.006-1.675-.167-2.476-.5-2.336-.583-4.757-1.084-7.106-.163-.76-.376-1.465-.548-2.218-.143-.627-.32-1.242-.461-1.861a23.578 23.578 0 0 0-.912-3.466c-.231-.591-.26-1.213-.5-1.8-.185-.457-.413-.915-.625-1.36-.308-.643-.5-1.339-.833-1.975a7.841 7.841 0 0 0-1-1.662" style="fill:#e96449"/><path d="M224.31 134.138c9.9 8.483 10.187 24.145 8.971 36.084-1.122 11.021-3.715 22.984.485 33.539.568 1.43 3.1 1.438 2.946-.4-.317-3.772 1.835-6.839 3.142-10.213a62.239 62.239 0 0 0 2.629-9.232 80.152 80.152 0 0 0 1.553-16.189 115.8 115.8 0 0 0-1.5-18.407c-.827-5.5-2.144-12.017-5.367-16.669-1.092-1.576-3.694-.078-2.591 1.514 3.619 5.222 4.6 12.782 5.447 18.922a106.416 106.416 0 0 1 1.012 17.5 71.561 71.561 0 0 1-2.362 16.177c-1.416 5.366-5.438 10.9-4.96 16.593l2.946-.4c-4.915-12.357.06-25.789.213-38.591.134-11.208-1.407-24.613-10.44-32.357-1.458-1.25-3.59.862-2.121 2.122ZM203.621 95.494a35.714 35.714 0 0 1-4.451-.071 17.33 17.33 0 0 1-3.637-.439c-1.329-.485-2.808-1.785-2.24-3.313a1.8 1.8 0 0 1 1.078-1.181c.315-.074 1.233-.022.954.5-.913 1.7 1.676 3.217 2.591 1.514 2.92-5.439-6.614-6.9-7.747-1.508a6.131 6.131 0 0 0 3.5 6.477c2.922 1.378 6.806 1.024 9.956 1.024a1.5 1.5 0 0 0 0-3ZM285.809 144.054c-.294-.34-.151.146-.192.479-.072.593-.2 1.171-.234 1.771a8.823 8.823 0 0 0 .2 2.463 3.6 3.6 0 0 0 3.9 3.037 4.966 4.966 0 0 0 4.45-3.612c.568-1.909-.449-3.917-2.568-3.948a1.5 1.5 0 0 0 0 3q-.329-.442-.246-.125a3.209 3.209 0 0 1-.446.971 1.7 1.7 0 0 1-1.39.731c-.847-.062-.853-.831-.906-1.594-.128-1.831.9-3.724-.451-5.294-1.264-1.464-3.378.666-2.121 2.121ZM254.274 119.751a6.571 6.571 0 0 1 .744 2.727 3.143 3.143 0 0 1 .1 1.221c-.053.305-.234.585-.284.9a1.706 1.706 0 0 0-.031.371q.009.334-.033.016c-1.171 1.533 1.433 3.029 2.591 1.514a5.208 5.208 0 0 0 .664-2.1 5.771 5.771 0 0 0-.013-2.279c-.269-1.363-.29-2.687-1.151-3.883-1.118-1.553-3.722-.057-2.591 1.514Z" style="fill:#231f20"/><path d="M49.265 15.243v486.216h17.667V34.393l211.361-6.482v475.548h19.721V7.744L49.265 15.243z" style="fill:#917963"/><path d="M47.765 15.243v466.3c0 6.212-.715 12.91 0 19.093a7.342 7.342 0 0 1 0 .826 1.522 1.522 0 0 0 1.5 1.5h17.667a1.522 1.522 0 0 0 1.5-1.5V41.449c0-1.665.595-4.666 0-6.246a2.817 2.817 0 0 1 0-.81l-1.5 1.5 71.349-2.188 113.8-3.49 26.216-.8-1.5-1.5V484c0 6.01-.828 12.695 0 18.665a6.041 6.041 0 0 1 0 .8 1.522 1.522 0 0 0 1.5 1.5h19.721a1.522 1.522 0 0 0 1.5-1.5V27.964c0-6.3.727-13.094 0-19.364a7.639 7.639 0 0 1 0-.856 1.517 1.517 0 0 0-1.5-1.5l-84.13 2.536L79.9 12.819l-30.63.924c-1.926.058-1.934 3.058 0 3l84.126-2.536 133.994-4.04 30.629-.923-1.5-1.5V496c0 1.735-.644 4.961 0 6.6a2.929 2.929 0 0 1 0 .857l1.5-1.5h-19.726l1.5 1.5V47.372c0-6.01.827-12.695 0-18.665a5.873 5.873 0 0 1 0-.8 1.518 1.518 0 0 0-1.5-1.5l-71.35 2.193-113.8 3.49-26.215.8a1.524 1.524 0 0 0-1.5 1.5V494.4c0 1.666-.6 4.667 0 6.246a2.86 2.86 0 0 1 0 .811l1.5-1.5H49.265l1.5 1.5V35.162c0-6.213.715-12.91 0-19.094a7.324 7.324 0 0 1 0-.825 1.5 1.5 0 0 0-3 0Z" style="fill:#231f20"/><path d="M243.294 32a8.424 8.424 0 0 0-8.4-8.4H64.832a8.424 8.424 0 0 0-8.4 8.4v20.571a8.424 8.424 0 0 0 8.4 8.4h161.047a14.967 14.967 0 0 1 11.913 5.918c2.628 3.459 3.944 6.571 4.451 6.4.912-.311.868-11.612.928-16.488 0-.4.015-.844.024-1.281a6.424 6.424 0 0 0 .1-1.091Z" style="fill:#fff"/><path d="M244.794 32c-.974-11.974-13.627-9.9-22.129-9.9H76.792c-8.393 0-21.047-2-21.859 9.931a188.4 188.4 0 0 0 0 20.291C55.194 58.6 59.765 62.343 65.8 62.47c28.32.6 56.717 0 85.042 0h51.719c7.744 0 15.574-.339 23.314 0 5.372.235 9.145 2.948 12.117 7.307.879 1.29 1.9 4.1 3.494 4.8a1.558 1.558 0 0 0 1.818-.234c1.986-2.088 1.231-7.438 1.282-9.97q.115-5.767.208-11.531c.112-6.944 0-13.9 0-20.844a1.5 1.5 0 0 0-3 0v19.288c0 2.807-.124 5.6-.149 8.405-.023 2.46.822 11.184-.462 12.534l1.817-.234c-1.755-.774-3.274-5.162-4.647-6.756a16.441 16.441 0 0 0-6.825-4.737 19.009 19.009 0 0 0-6.376-1.028c-3.052-.051-6.108 0-9.16 0H77.7c-3.728 0-7.475.109-11.2 0-.547-.016-1.113.052-1.659 0-6.613-.627-6.907-6.015-6.907-11.093V35.8c0-4.978.484-10.064 6.907-10.7 1.845-.182 3.8 0 5.65 0h137.832c8.564 0 17.334-.55 25.885 0 4.146.267 7.223 2.43 7.586 6.9.156 1.913 3.157 1.93 3 0Z" style="fill:#e96449"/><path d="M80.657 33.319a131.31 131.31 0 0 0-2.333 14.527c-.068.8-1.288 1.363-1.7.459q-1.592-3.513-3.182-7.03l-3.031 7.179c-.4.951-1.6.3-1.7-.459-.641-4.866-1.733-9.643-2.829-14.427-.263-1.143 1.494-1.627 1.756-.484.885 3.863 1.741 7.719 2.392 11.619q1.3-3.072 2.595-6.146a.915.915 0 0 1 1.573 0l2.672 5.9c.5-3.9 1.251-7.759 2.023-11.625.233-1.148 1.99-.656 1.764.487ZM85.733 42.585c-.134 0-.268 0-.4.007h-.009c-.009 0-.005.006-.025.013-.071.026-.144.047-.217.069-.031.023-.144.086-.178.109-.057.042-.1.082-.131.1a2.425 2.425 0 0 0-.192.214c0 .018-.011.04-.03.095a1.487 1.487 0 0 1-.074.157c.061 1.506.08 3.01.012 4.526-.053 1.169-1.875 1.172-1.822 0a52.523 52.523 0 0 0-.136-6.871c-.1-1.171 1.723-1.161 1.822 0v.065a3.525 3.525 0 0 1 1.377-.31.912.912 0 0 1 .003 1.826ZM96.554 45.933a4.868 4.868 0 0 1-4.8 2.783 4.425 4.425 0 0 1-3.147-2.359.618.618 0 0 1-.035-.108 1.014 1.014 0 0 1-.057-.109 5.052 5.052 0 0 1 1.8-5.6 4.292 4.292 0 0 1 6.239 5.393Zm-1.536-2.724a2.472 2.472 0 0 0-3.25-1.346c-1.376.5-1.886 2.219-1.521 3.673a2.384 2.384 0 0 0 2.163 1.375 2.917 2.917 0 0 0 2.608-3.702ZM107.606 47.862a.912.912 0 0 1-1.822 0 32.4 32.4 0 0 0-.065-4.194c-.16-1.139-.679-1.844-1.984-1.744-2.577.2-2.409 3.963-2.457 5.948a.912.912 0 0 1-1.822 0 95.408 95.408 0 0 0-.219-6.765c-.08-1.173 1.743-1.164 1.822 0 .006.075.007.151.012.227a3.617 3.617 0 0 1 2.664-1.232c4.388-.22 3.843 4.786 3.871 7.76ZM120.936 44.023a38.757 38.757 0 0 1-2.576 2.875 19.983 19.983 0 0 1-.45 2.784c-.561 2.3-1.312 4.727-4 5.191-1.512.261-3.41.038-3.656-1.785-.238-1.757 1.994-3.021 3.108-3.993.139-.123.274-.247.412-.369a4.362 4.362 0 0 1-.485-.01 4.423 4.423 0 0 1-3.147-2.359.72.72 0 0 1-.036-.108 1.011 1.011 0 0 1-.056-.109 5.053 5.053 0 0 1 1.8-5.6 4.3 4.3 0 0 1 5.123.336c.143-1.149 1.963-1.158 1.822 0-.128 1.055-.187 2.1-.24 3.131.368-.418.737-.837 1.09-1.277.737-.909 2.019.388 1.291 1.293Zm-4.377-.814a2.472 2.472 0 0 0-3.25-1.346c-1.377.5-1.886 2.219-1.521 3.673a2.381 2.381 0 0 0 2.161 1.375 2.919 2.919 0 0 0 2.61-3.702Zm-.183 5.623c-.6.56-1.218 1.111-1.847 1.661a10.942 10.942 0 0 0-2.307 2.038c-.323.552-.107.453.269.555 2.336.63 3.385-1.539 3.885-4.254ZM131.845 42.585c-.134 0-.268 0-.4.007h-.008c-.008 0 0 .006-.025.013-.072.026-.144.047-.217.069-.031.023-.145.086-.178.109-.057.042-.1.082-.131.1a2.606 2.606 0 0 0-.193.214.845.845 0 0 1-.029.095 1.487 1.487 0 0 1-.074.157c.061 1.506.08 3.01.012 4.526-.053 1.169-1.875 1.172-1.823 0a52.522 52.522 0 0 0-.135-6.871c-.1-1.171 1.723-1.161 1.822 0v.065a3.525 3.525 0 0 1 1.377-.31.912.912 0 0 1 .002 1.826ZM142.666 45.933a4.87 4.87 0 0 1-4.8 2.783 4.425 4.425 0 0 1-3.147-2.359.618.618 0 0 1-.035-.108 1.014 1.014 0 0 1-.057-.109 5.052 5.052 0 0 1 1.8-5.6 4.292 4.292 0 0 1 6.239 5.393Zm-1.537-2.724a2.471 2.471 0 0 0-3.249-1.346c-1.376.5-1.886 2.219-1.522 3.673a2.386 2.386 0 0 0 2.163 1.375 2.916 2.916 0 0 0 2.608-3.702ZM153.352 45.933a4.869 4.869 0 0 1-4.8 2.783 4.427 4.427 0 0 1-3.147-2.359.849.849 0 0 1-.035-.108 1.011 1.011 0 0 1-.056-.109 5.051 5.051 0 0 1 1.8-5.6 4.292 4.292 0 0 1 6.238 5.393Zm-1.536-2.724a2.472 2.472 0 0 0-3.25-1.346c-1.376.5-1.886 2.219-1.521 3.673a2.386 2.386 0 0 0 2.163 1.375 2.916 2.916 0 0 0 2.608-3.702ZM170.123 47.943c-.067 1.168-1.89 1.172-1.823 0 .082-1.43.913-5.318-.808-5.976-2.9-1.111-3.262 2.81-3.312 5.035v.131c0 .284-.006.539-.008.745a.912.912 0 0 1-1.822 0c0-.7.029-1.457.1-2.207.047-1.69-.111-3.564-1.483-3.753-2.934-.4-2.841 4.118-2.886 6a.912.912 0 0 1-1.822 0 98.557 98.557 0 0 0-.219-6.94c-.078-1.172 1.744-1.163 1.822 0 .009.124.012.247.019.373a3.667 3.667 0 0 1 3.088-1.255 2.808 2.808 0 0 1 2.631 1.64 3.726 3.726 0 0 1 3.9-1.594c3.662.458 2.776 5.172 2.623 7.801ZM180.028 47.93c-1.6-1.481-1.021-3.94-.977-5.847.066-2.905.041-5.809.018-8.714a.912.912 0 0 1 1.822 0c.017 2.28.032 4.558.007 6.837 2.665-.346 4.985.2 5.646 3.313.726 3.427-3.464 7.241-6.516 4.411Zm.787-5.883c-.184 1.613-.534 3.989.689 4.707 1.2.705 3.148-.4 3.375-1.677.521-2.933-1.928-3.37-4.064-3.03ZM197.1 47.378c.081 1.139-1.624 1.153-1.8.087a3.667 3.667 0 0 1-3.13 1.274c-4.09-.153-3.414-5-3.442-7.858a.912.912 0 0 1 1.822 0c.013 1.322-.029 2.658.047 3.979.066 1.162.344 1.971 1.573 2.057 3.019.211 2.835-3.931 2.886-5.936a.912.912 0 0 1 1.822 0 86.973 86.973 0 0 0 .222 6.397ZM205.575 48.306c-1.54.943-3.964.312-5.187-.912-1.325-1.327-1.166-3.474-.475-5.077.975-2.26 3.169-2.406 5.281-2.108-.023-2.276-.01-4.551.008-6.825a.911.911 0 0 1 1.821 0c-.024 3.243-.056 6.489.041 9.732.056 1.852.371 4.053-1.489 5.19Zm-.295-6.242c-2.138-.341-4.59.1-4.066 3.03.228 1.273 2.176 2.389 3.375 1.676 1.227-.731.872-3.091.691-4.706ZM215.59 48.306c-1.54.943-3.964.312-5.187-.912-1.325-1.327-1.166-3.474-.475-5.077.975-2.26 3.169-2.406 5.281-2.108-.023-2.276-.01-4.551.008-6.825a.912.912 0 0 1 1.822 0c-.025 3.243-.057 6.489.041 9.732.055 1.852.37 4.053-1.49 5.19Zm-.3-6.242c-2.138-.341-4.59.1-4.066 3.03.228 1.273 2.176 2.389 3.375 1.676 1.233-.731.877-3.091.701-4.706ZM229.217 46.258c-.532.328-1.069.65-1.607.975a39.88 39.88 0 0 1-.136 2.556c-.235 2.557-1.455 5.012-4.314 5.268-3.328.3-4.4-2.474-2.46-5a10.5 10.5 0 0 1 1.909-1.845c-3.412-.433-3.048-4.528-3.076-7.18a.912.912 0 0 1 1.822 0c.018 1.614-.612 5.1 1.619 5.4 2.329.318 2.753-2.553 2.855-4.5.012-.284.024-.567.032-.851a.912.912 0 0 1 1.823 0c-.04 1.316-.034 2.654-.038 3.993.22-.13.443-.26.653-.39 1.001-.617 1.916.96.918 1.574Zm-3.51 2.169a25.338 25.338 0 0 0-2.56 1.853 4.775 4.775 0 0 0-1.261 1.453 6.337 6.337 0 0 0-.506.949c.078-.11.19.174.159.209a2.313 2.313 0 0 0 2.278.135c1.783-.777 1.907-2.854 1.89-4.599ZM232.114 48.2l-.055.055a.912.912 0 0 1-1.289-1.288l.055-.056a.912.912 0 0 1 1.289 1.289Z" style="fill:#221f1f"/><path d="M244.128 374.835c-.021-.5-.031-1-.07-1.516-.009.319.025.855.07 1.516ZM240.185 372.587c.031.587.034 1.963.123 3.527a15.836 15.836 0 0 0-.123-3.527ZM244.128 374.835c.016.384.048.772.053 1.158a31.151 31.151 0 0 0 .069 3.909 38.778 38.778 0 0 0-.122-5.067Z" style="fill:none"/></svg>