<svg xmlns="http://www.w3.org/2000/svg" width="158" height="81" fill="none"><path fill="currentColor" fill-rule="evenodd" d="M89.1 12.2c-.8 1.5-1 3.6-.6 6.3l.2 1.3c.3 2.6 1.1 4.5 2.1 5.8 1.1 1.2 2.5 1.7 4.3 1.5 1.4-.2 2.5-1 3.2-2.4l.4 1.7 4-.5-3-23.9-4.4.5 1 8.4c-1-1-2.1-1.4-3.4-1.3-1.8.3-3.1 1.2-3.8 2.6zm4.8 10.3c-.4-.6-.8-1.8-1-3.4l-.1-1.1c-.2-1.7-.2-2.8.1-3.5.3-.7.8-1.1 1.6-1.2.9-.1 1.6.2 2.1 1l.9 7.7c-.3.8-1 1.3-1.8 1.4-.7 0-1.3-.3-1.8-.9zM52.1 10.8l.5 4.1 2.2-.3.4 3.3-2.2.4 1 8.3c.1.7.2 1.1.4 1.3.2.2.6.3 1.1.2.4-.1.8-.1 1-.2l.4 3.4c-.7.4-1.5.6-2.4.7-2.8.3-4.5-1.1-4.9-4.3l-1.1-8.9-1.9.2-.4-3.3 1.9-.2-.5-4.1 4.5-.6zM9.8 29.2l1 7.9-4.6.6-2.7-22.6 7.7-.9c2.2-.3 4.1.2 5.6 1.4s2.4 2.9 2.7 5.2c.3 2.2-.2 4-1.3 5.5-1.2 1.4-2.9 2.3-5.2 2.6l-3.2.3zm-.5-3.8 3.1-.4c.9-.1 1.5-.5 1.9-1.1.4-.6.5-1.5.4-2.6-.1-1.1-.5-2-1.1-2.6-.6-.6-1.3-.9-2.1-.8l-3.2.4 1 7.1zm21.5-3.5-1.4.1c-1.2.1-1.9.8-2.2 1.9L28.5 35l-4.4.5L22 18.7l4.1-.5.3 1.8c.5-1.5 1.4-2.3 2.6-2.5.5-.1.9 0 1.2.1l.6 4.3zm4.8 10.4c1.4 1.2 3.3 1.6 5.5 1.4 1.2-.1 2.3-.5 3.3-1.1 1-.6 1.7-1.3 2.1-2.1l-2-2.4c-.9 1.1-2 1.8-3.5 2-1 .1-1.8-.1-2.4-.6-.6-.5-.9-1.4-1.2-2.6l8.7-1.1-.3-2.2c-.3-2.6-1.1-4.6-2.4-5.8-1.2-1.2-2.9-1.7-5-1.4-2.2.3-3.7 1.2-4.7 2.8-1 1.6-1.3 3.7-1 6.3l.2 1.3c.4 2.5 1.3 4.4 2.7 5.5zm5.9-9.1-4.4.5c-.1-1.2 0-2.1.3-2.7.3-.6.8-.9 1.6-1 .8-.1 1.3.1 1.7.6.4.5.6 1.2.8 2.2v.4zm19.1 6.1c1.4 1.2 3.3 1.6 5.5 1.4 1.2-.1 2.3-.5 3.3-1.1 1-.6 1.7-1.3 2.1-2.1l-2-2.4c-.9 1.1-2 1.8-3.5 2-1 .1-1.8-.1-2.4-.6-.6-.5-.9-1.4-1.2-2.6l8.7-1.1-.3-2.2c-.3-2.6-1.1-4.6-2.4-5.8-1.2-1.2-2.9-1.7-5-1.4-2.2.3-3.7 1.2-4.7 2.8s-1.3 3.7-1 6.3l.2 1.3c.4 2.4 1.3 4.3 2.7 5.5zm5.9-9.1-4.4.5c-.1-1.2 0-2.1.3-2.7.3-.6.8-.9 1.6-1 .8-.1 1.3.1 1.7.6.4.5.6 1.2.8 2.2v.4zm9.9-8.2.3 1.6c.8-1.4 2-2.3 3.7-2.4 2.9-.4 4.6 1.5 5.2 5.5l1.4 11-4.4.5-1.3-10.7c-.1-1-.3-1.6-.7-2-.3-.4-.9-.6-1.6-.5-.8.1-1.4.6-1.7 1.5l1.5 12.2-4.4.5-2.1-16.8 4.1-.4zm36.4 8c0-.4-.3-.7-.7-1-.4-.3-1.2-.6-2.5-1-1.9-.5-3.2-1.1-4-1.8-.8-.7-1.2-1.6-1.4-2.8-.2-1.5.2-2.7 1.1-3.8.9-1.1 2.3-1.7 4-2 1.8-.2 3.4.1 4.6.9 1.2.8 1.9 2 2.1 3.6l-4.4.5c-.2-1.4-.8-2-2-1.8-.5.1-.8.2-1.1.6-.3.3-.4.7-.3 1.3 0 .4.3.7.6.9.4.2 1.2.5 2.5.9 1.9.4 3.2 1 4.1 1.8.8.7 1.3 1.7 1.5 3 .2 1.5-.2 2.8-1.2 3.8s-2.4 1.7-4.3 1.9c-1.2.2-2.3 0-3.3-.3-1-.4-1.8-1-2.5-1.7-.6-.8-1-1.7-1.1-2.7l4.2-.5c.1.8.4 1.3.7 1.7.4.3 1 .5 1.7.4 1.3-.2 1.8-.8 1.7-1.9zm-7.7 44.8-6.9.8L95 39.5l6.9-.8 3.2 26.1zM93.8 32.7c-.1-1.1.1-2 .7-2.7.6-.8 1.5-1.2 2.6-1.4 1.1-.1 2.1.1 2.8.7.8.6 1.2 1.4 1.3 2.5.1 1.1-.1 2-.7 2.7-.6.8-1.4 1.2-2.6 1.4-1.1.1-2.1-.1-2.9-.7-.6-.6-1.1-1.4-1.2-2.5zM4.1 53.4c-1.2 2.3-1.5 5.6-1 9.9l.2 2c.5 4.1 1.6 7.1 3.3 9 1.7 1.9 3.9 2.7 6.7 2.4 2.2-.3 3.9-1.5 5-3.8l.6 2.6 6.2-.8-4.6-37.2-6.9.8 1.6 13.1c-1.6-1.6-3.3-2.2-5.4-2-2.5.4-4.5 1.7-5.7 4zm7.6 16.1c-.7-1-1.2-2.7-1.5-5.3l-.2-1.8c-.3-2.6-.3-4.4.2-5.5.5-1.1 1.3-1.7 2.6-1.9 1.4-.2 2.5.4 3.3 1.6l1.5 12c-.5 1.3-1.5 2-2.9 2.2-1.4 0-2.4-.4-3-1.3zM37.8 53l2.3-.1-.8-6.8c-.5-.1-1.1-.1-1.9-.1-1.9.2-3.3 1.5-4.1 3.9l-.5-2.8-6.5.8 3.2 26.2 6.9-.8L34.3 56c.5-1.8 1.6-2.8 3.5-3zM57 70.7c-.2-.4-.5-1-.8-2-1 1.8-2.6 2.9-4.7 3.1-2.2.3-4.1-.2-5.7-1.5-1.6-1.3-2.6-3.1-2.8-5.4-.3-2.7.3-5 1.8-6.7 1.6-1.7 4-2.8 7.3-3.2l2.1-.3-.3-2.1c-.1-1.2-.4-2-.9-2.4-.5-.4-1.1-.6-1.9-.5-1.7.2-2.4 1.3-2.2 3.3l-6.8 1c-.3-2.4.4-4.5 2-6.3 1.6-1.8 3.8-2.9 6.6-3.2 2.9-.4 5.2.1 6.9 1.4 1.8 1.3 2.8 3.3 3.2 6.1l1.5 12.3c.3 2.3.9 4 1.6 5.2l.1.4-7 .8zm-4.6-4.4c.8-.1 1.4-.3 1.9-.7.5-.4.8-.8 1.1-1.2l-.7-5.4-1.7.2c-1.2.1-2 .6-2.6 1.5-.6.8-.8 1.9-.6 3.1.2 1.9 1.1 2.7 2.6 2.5zm33-25.7-.5 15-5.3-14.3-4.9.7L73 57.1l-4.1-14.4-6.6.8L71 69l5.7-.7 1.8-15.6 5.6 14.7 5.7-.7L92 39.8l-6.6.8zm27.8-.7-.5-2.6-6.4.8 3.2 26.2 6.9-.8-2.3-19c.5-1.4 1.4-2.1 2.7-2.3 1.1-.1 1.9.1 2.5.7.5.6.9 1.7 1.1 3.1l2.1 16.7 6.9-.8-2.4-17.2c-.9-6.3-3.6-9.2-8.1-8.6-2.5.3-4.4 1.5-5.7 3.8zm17.6 7.7c-.5-4.3-.1-7.6 1.1-9.9s3.3-3.6 6.1-4c2.4-.3 4.3.4 5.8 2.1v-2.4l6.2-.8 3.2 26.2c.4 3.3-.2 6-1.9 8s-4.2 3.2-7.7 3.7c-1.4.2-3 .1-4.6-.3-1.7-.4-2.9-1-3.8-1.7l1.7-5c.7.6 1.6 1 2.7 1.3 1.1.3 2.1.4 3 .3 1.5-.2 2.6-.7 3.2-1.5.6-.8.8-2 .6-3.7l-.3-2.3c-1.1 1.9-2.7 2.9-4.8 3.2-2.8.3-5.1-.5-6.9-2.4-1.8-2-2.9-5-3.5-8.9l-.1-1.9zm7 .9c.3 2.4.8 4.2 1.6 5.2s1.8 1.4 3.2 1.3c1.4-.2 2.4-.8 2.9-1.9L144 40.5c-.8-1-1.9-1.5-3.3-1.3-1.4.2-2.3.8-2.8 2s-.6 3-.3 5.5l.2 1.8zm0-30c.1 1 .1 1.8-.2 2.4-.3.5-.7.9-1.4 1-.5.1-1-.1-1.4-.6v.6l-1.5.2-1.1-8.9 1.6-.2.4 3.2c.3-.5.6-.7 1.1-.8.7-.1 1.2.1 1.6.6.4.5.6 1.2.8 2.2l.1.3zm-1.6-.2c-.1-.7-.2-1.1-.4-1.3-.2-.2-.4-.3-.7-.3-.3 0-.6.2-.7.6l.4 2.9c.2.3.5.4.8.3.3 0 .5-.2.6-.4.1-.2.1-.6.1-1.2l-.1-.6zm-13.9-1.2-.2-1.5-1.6.2.2 1.5-.7.1.2 1.2.7-.1.4 3.3c.2 1.2.8 1.8 1.8 1.6.3 0 .6-.1.9-.3l-.1-1.3c-.1 0-.2.1-.4.1s-.3 0-.4-.1c-.1-.1-.1-.3-.2-.5l-.4-3.1.8-.1-.2-1.2-.8.2zm2.1.4c-.4.6-.5 1.4-.4 2.3v.4c.1 1 .4 1.7.9 2.2.5.5 1.2.7 2 .6.8-.1 1.4-.4 1.8-1s.5-1.4.4-2.3v-.4c-.1-1-.4-1.7-1-2.2-.5-.5-1.2-.7-2-.6-.7.1-1.3.4-1.7 1zm2.4 4.1c-.6.1-1-.5-1.1-1.6v-.4c-.1-.6 0-1 .1-1.3.1-.3.3-.5.6-.5s.5.1.7.3c.2.3.3.7.4 1.2l.1.7c0 1-.2 1.5-.8 1.6zm12.9-.9c.5.4 1.2.6 2.1.5.4-.1.9-.2 1.2-.4.4-.2.6-.5.8-.8l-.8-.9c-.3.4-.8.7-1.3.7-.4 0-.7 0-.9-.2-.2-.2-.4-.5-.4-1l3.3-.4-.1-.8c-.1-1-.4-1.7-.9-2.2-.5-.5-1.1-.6-1.9-.5-.8.1-1.4.4-1.8 1-.4.6-.5 1.4-.4 2.4l.1.5c.1.9.4 1.6 1 2.1zm2.2-3.5-1.6.2c0-.5 0-.8.1-1 .1-.2.3-.4.6-.4s.5 0 .6.2c.1.2.2.5.3.8v.2z" clip-rule="evenodd"/></svg>